<?xml version="1.0" encoding="utf-8"?>
<!-- Generator: Adobe Illustrator 22.1.0, SVG Export Plug-In . SVG Version: 6.00 Build 0)  -->
<svg version="1.1" id="Layer_1" xmlns="http://www.w3.org/2000/svg" xmlns:xlink="http://www.w3.org/1999/xlink" x="0px" y="0px"
	 viewBox="0 0 122.8 176.3" style="enable-background:new 0 0 122.8 176.3;" xml:space="preserve">
<style type="text/css">
	.st0{fill:#5884B9;}
	.st1{opacity:0.5;}
	.st2{fill:#9BB5D5;}
</style>
<g id="payment" transform="translate(0 1280)">
	<path id="Path_202" d="M61.1-1279c-0.2,2.3-0.3,9.6-0.1,10.9c0.2,1.5,0.4,2.2,0.6,2.2c0.8-0.5,1.4-1.3,1.8-2.1
		c0.3-0.6,1.1-2.5,1.8-4.4c0.8-2.1,1.3-4.3,1.8-6.5l0.1-0.6l-0.7-0.1c-0.6-0.1-4.4-0.4-4.9-0.4C61.2-1280,61.2-1279.9,61.1-1279z"/>
	<path id="Path_203" d="M28.6-1265.1c-0.6,0.2-1.6,0.6-2.3,0.9c-0.5,0.2-1.1,0.5-1.6,0.6c-0.2,0-0.4,0.2-0.4,0.2
		c0.8,1.4,1.7,2.7,2.7,3.9c0.6,0.7,1.1,1.4,1.6,2.2c1.1,1.7,2.3,3.4,3.6,4.9c1.6,2,1.9,2,1.5,0.1c-0.1-0.6-0.5-2.3-0.8-3.7
		s-0.7-3.1-0.9-3.8c-0.2-0.7-0.6-2.1-0.9-3c-0.6-2.1-0.7-2.5-1-2.7S29.8-1265.6,28.6-1265.1z"/>
	<path id="Path_204" d="M104.9-1255.4c-0.4,0.4-1.4,1.5-2.1,2.3c-0.8,0.8-3.2,3.4-5.4,5.8c-4.5,4.7-5.5,5.9-5.5,6.3
		c0,0.2,0,0.2,0.2,0.1c0.7-0.3,1.3-0.6,2-0.8c1.7-0.6,3.3-1.3,4.8-2.1c3.5-1.7,9.2-4.5,10.3-5c1.1-0.5,1.1-0.5,0.9-0.9
		c-0.6-1.5-1.5-3-2.5-4.4c-0.3-0.2-0.5-0.5-0.7-0.8c-0.3-0.5-0.7-1-1.2-1.3C105.5-1256,105.2-1255.7,104.9-1255.4z"/>
	<path id="Path_205" d="M53.2-1253.6c-0.5,0.2-0.8,2-0.4,2.6c0.1,0.3,0.2,0.6,0.2,0.9c0,0.3,0,0.6,0.1,0.9c0.8,3.6,1.3,7.2,1.5,10.8
		c0,1.7-0.3,2-2.4,2.5c-1.7,0.4-3.3,1.1-4.8,2c-4,2.1-5.3,3.1-8.9,6.8c-3.9,3.9-5.3,6.4-6.2,10.2c-0.1,0.6-0.3,1.2-0.5,1.8
		c-0.3,2.1-0.3,4.3-0.1,6.4c0.4,1.5,1,2.8,1.9,4c1.4,1.9,3.1,3.6,5,5.1c2.8,1.8,5.9,3.2,9.1,4.3c1.4,0.5,2.9,1,3.3,1.2
		s2.2,0.7,3.9,1.1c1.2,0.3,2.4,0.6,3.6,1.1c0.2,0.1,0.5,0.2,0.8,0.3c1,0.3,1.9,0.7,2.6,1.3c0.5,0.3,2.3,1.3,4,2.1
		c2.1,0.9,4,2.1,5.8,3.5c0.9,0.8,1.6,1.7,2.2,2.8c0.4,0.8,0.3,2.1-0.2,4.1c-0.5,1.9-1,2.9-1.5,3.2c-0.2,0.1-0.9,0.5-1.4,0.8
		c-0.4,0.2-0.8,0.4-1.2,0.6c-0.2,0-0.4,0.1-0.5,0.3c-0.7,0.5-2,0.7-4.9,0.7c-2.2,0.1-4.5-0.2-6.6-0.9c-4.2-1.4-8.3-3.2-12.2-5.3
		c-2.6-1.3-4.9-2.4-5-2.4c-0.3,0-1,0.5-1.6,1.3c-2.3,3-4.2,6.3-5.8,9.7c-0.3,0.8-0.7,1.5-1.1,2.2c-0.1,0.2-0.2,0.4-0.2,0.6
		c0,0.3-0.1,0.7-0.2,1l-0.2,0.6l1.5,1.2c2.9,2.3,3.3,2.6,4.7,3.5c0.5,0.4,1.1,0.7,1.7,1c0.2,0.1,0.4,0.2,0.5,0.4
		c0.1,0.2,0.3,0.4,0.5,0.4c1.9,0.6,3.8,1.4,5.7,2.3c0.7,0.4,2,0.9,2.7,1.2s1.8,0.7,2.2,1c0.7,0.3,1.4,0.5,2.2,0.6
		c1.9,0.3,1.8,0.3,1.8,0.8c0,0.2-0.2,1.8-0.4,3.5c-0.2,1.7-0.5,4.2-0.7,5.6c-0.2,1.4-0.3,2.8-0.4,3.1c-0.2,0.8-0.4,1.6-0.4,2.4
		c0,0.6-0.1,1.2-0.2,1.9c-0.1,0.6-0.2,1.7-0.3,2.3c0,0.7-0.1,1.5-0.2,1.8l-0.1,0.6l2.7,0.1c6.7,0.2,13,0.5,13.7,0.7
		c0.3,0.1-0.1-9.8-0.6-13.7c-0.1-0.9-0.3-1.7-0.5-2.5c-0.2-0.6-0.3-1.2-0.3-1.8c0-0.3,0-0.7-0.1-1c-0.2-1-0.2-2-0.1-3.1
		c0.5,0,6-0.5,6.9-0.6c0.6-0.1,1.1-0.2,1.7-0.4c0.3-0.2,1.3-0.6,2.3-0.9c1.6-0.5,3.2-1.2,4.7-2.1c0.5-0.3,1-0.6,1.5-0.8
		c0.2-0.1,0.4-0.3,0.6-0.5c0.2-0.2,0.4-0.4,0.7-0.6c1.2-1.1,2.4-2.2,3.4-3.5c1.1-1.5,2-3.2,2.8-4.8c0.6-1.4,1.1-2.9,1.4-4.4
		c0.1-0.5,0.2-1,0.4-1.4c0.2-0.3,0.2-0.8,0.2-3.4c0-2.9,0-3.1-0.4-4.2c-0.2-0.6-0.6-2-0.8-2.9c-0.5-2.4-1.6-4.6-3-6.5
		c-1.6-2-3.5-3.9-5.5-5.5c-0.5-0.3-0.9-0.6-1.3-1c-0.3-0.3-0.6-0.5-0.9-0.7c-0.2-0.1-1.1-0.6-1.9-1.1c-2.7-1.7-8.8-4.5-10.5-4.9
		c-0.3-0.1-0.6-0.2-0.9-0.3c-1.2-0.5-2.5-0.9-3.8-1.1c-3.5-0.6-7.2-2.3-8.7-3.9c-1-0.9-1.5-2.2-1.4-3.5c-0.1-0.8,0-1.5,0.4-2.2
		c0.9-1.5,2.2-2.6,3.8-3.3c2.3-1,4.7-1.4,7.2-1.2c1.8,0.1,3.5,0.4,5.2,0.8c1.1,0.4,4.5,2,5.1,2.4c0.4,0.2,1.2,0.7,1.8,1.2
		c0.7,0.5,1.4,1,2.1,1.6c0.9,0.9,1.2,1,1.7,0.7c0.8-0.6,3-4.6,3.8-6.9c0.2-0.7,0.5-1.4,0.8-2c0.5-1.3,0.9-2.7,1.2-4
		c0.1-0.7-0.2-1.2-1.2-2c-1.1-0.8-2.2-1.5-3.4-2.1c-0.1,0-0.2-0.1-0.2-0.1c0-0.2-0.6-0.6-1.9-1c-2.3-1-4.6-2.1-6.7-3.4
		c-0.3-0.2-0.7-0.4-1.1-0.6c-0.1,0-1-0.2-2.1-0.5c-1.4-0.2-2.7-0.8-3.8-1.7c-0.6-0.5-0.6-0.5-0.6-1.5c0-0.6,0.1-1.9,0.2-3
		c0.2-1.6,0.4-3.2,0.8-4.7c0.4-1.9,0.9-6.3,0.7-6.7c-0.1-0.1-0.5-0.2-1.3-0.3c-0.6,0-1.1-0.1-1.7-0.2c-0.3-0.1-2-0.2-3.9-0.4
		s-4.2-0.3-5.2-0.3C54-1253.7,53.6-1253.7,53.2-1253.6z"/>
	<path id="Path_206" d="M9.7-1237.9c-0.2,0.1-0.3,0.2-0.4,0.3c-0.2,0.8-0.5,1.5-1,2.1c-0.9,1.4-1.7,3-2.2,4.6
		c-0.1,0.5,0,0.6,0.2,0.7c0.8,0,1.5,0,2.3-0.1c3.1-0.4,6.1-0.6,9.2-0.6c2.1-0.1,3.9-0.2,4-0.2c0.1-0.1,0.2-0.3,0.2-0.4
		c-0.5-0.9-1.3-1.6-2.2-2.1c-0.2,0-0.4-0.2-0.6-0.4c-0.1-0.1-0.2-0.2-0.4-0.3c-0.3-0.1-0.7-0.2-1-0.3c-2.2-1-4.2-1.9-5.2-2.5
		c-0.7-0.5-1.6-0.8-2.4-0.9C10-1238,9.8-1237.9,9.7-1237.9z"/>
	<path id="Path_207" d="M117.6-1227.7c-1,0.2-2,0.5-3,0.8c-0.8,0.3-2.4,0.8-3.5,1.1c-1.1,0.3-2.7,0.9-3.4,1.2
		c-0.6,0.3-1.3,0.5-2,0.7c-1.7,0.2-2.5,1.1-1.4,1.7c1.1,0.6,3.9,1,13.3,1.5c2.8,0.2,3,0.2,3.2-0.1s0.2-0.6,0.2-3.5
		c0-2.6,0-3.3-0.2-3.5C120.5-1228.2,119.5-1228.1,117.6-1227.7z"/>
	<path id="Path_208" d="M115.7-1202.2c-0.3,0.1-2.1,0.3-3.9,0.5c-1.3,0.1-2.6,0.3-3.9,0.6c-0.5,0.2-1.1,0.3-1.6,0.3
		c-1.2,0.2-1.4,0.3-1.4,1.1c0,0.6,0.2,0.7,1.1,0.7c0.4,0,0.8,0.1,1.2,0.3c0.4,0.1,2,0.6,3.6,1.1c1.6,0.5,3.4,1,3.9,1.2
		c2.5,0.7,5.1,1.3,7.6,1.6c0.2-1.4,0.4-2.9,0.4-4.3c0.1-2.4,0-2.6-1.8-2.9C119.2-1202.4,117.5-1202.4,115.7-1202.2z"/>
	<path id="Path_209" d="M10.5-1198c-7.6,0.8-9.8,1.1-10.2,1.5c-0.2,0.2-0.2,0.6-0.2,2.7c0,3.4,0.4,5.2,1.2,5.5
		c0.5,0.2,0.7,0.1,3.5-2.1c1.2-0.9,2.6-2,3.1-2.3s2.1-1.3,3.5-2.3s3.1-2,3.7-2.2c0.4-0.2,0.7-0.4,1-0.6c0-0.1-0.1-0.1-0.3-0.2
		C14-1198.1,12.2-1198.1,10.5-1198z"/>
	<path id="Path_210" d="M105.6-1174.3c-0.2,0.2-0.1,0.7,0.1,1.1c0.3,0.4,0.7,0.8,1.1,1.1c0.5,0.4,1.3,1,1.8,1.5
		c0.5,0.4,1.3,1.1,1.8,1.5c2,1.7,3.8,3.7,5.4,5.7c1,1.2,1.5,1.7,2,1.7c0.4,0,2.3-2.6,3-4.2c0.2-0.3,0.4-0.7,0.7-0.9
		c0.2-0.1,0.3-0.3,0.2-0.6c0-0.2,0-0.4,0.2-0.5c0.4-0.3,0.2-0.7-0.4-1.1c-2-1.2-4.1-2.1-6.2-2.9c-1.3-0.5-2.9-1.1-3.5-1.3
		c-1.1-0.4-2.3-0.7-3.5-0.8C105.8-1174.4,105.7-1174.4,105.6-1174.3z"/>
	<path id="Path_211" d="M13.7-1157.3c-0.6,0.1-1.1,0.4-1.6,0.6c-0.5,0.3-1.2,0.6-1.5,0.8s-2.9,1.4-5.6,2.8c-3.8,1.9-5,2.6-5,2.8
		c0.2,1.1,0.5,2.2,0.9,3.3c0.1,0.2,0.2,0.4,0.1,0.7c-0.1,0.2,0,0.4,0.2,0.4c0.2,0.2,0.4,0.4,0.5,0.7c0.6,1.3,1.6,2.2,2.2,2
		c1.5-1,2.8-2.4,3.8-3.9c0.3-0.5,0.7-1,1-1.4c0.3-0.3,0.5-0.6,0.7-1c0.5-0.7,1.1-1.3,1.7-1.9c0.9-1,1.9-2.1,2.2-2.4
		c0.3-0.4,0.9-1.1,1.4-1.6c0.9-1,1.3-1.6,1.1-1.8C15.2-1157.4,14.4-1157.5,13.7-1157.3z"/>
	<path id="Path_212" d="M89.4-1138.4c-0.2,0.2-0.1,0.9,0.1,1.7c0.6,1.7,1.5,3.3,2.5,4.7c1.5,2.1,2.8,4.3,3.9,6.6
		c2.5,4.8,2.6,4.9,3.2,4.3c0.2-0.2,0.5-0.4,0.7-0.5c0.8-0.6,1.4-1.3,1.8-2.1c0.2-0.3,0.7-1.2,1.3-1.9c0.4-0.4,0.7-1,0.9-1.5
		c-1.2-1.5-2.5-2.9-4-4.2c-3.4-3.1-5.3-4.6-6.6-5.2c-0.5-0.2-1.3-0.7-2-1C90-1138.3,89.6-1138.5,89.4-1138.4z"/>
	<path id="Path_213" d="M26.2-1135.6c-0.1,0.1-0.2,0.2-0.3,0.2c-0.2,0-0.3,0.2-0.4,0.4c-0.3,0.5-0.5,0.9-0.9,1.3
		c-0.4,0.5-1.4,1.8-2.2,2.9c-0.8,1.1-2,2.5-2.5,3.2c-0.5,0.5-0.9,1.1-1.2,1.7c-0.2,0.4-0.5,0.7-0.8,1c-1.2,1.6-2.3,3.3-3.2,5.1
		c0,0.3,0.5,0.6,2.7,1.7c2.4,1.2,3.6,1.5,4.4,1.3c0.6-0.2,1.1-1.5,1.9-4.6c0.4-1.9,1-3.8,1.7-5.6c0.3-1,0.8-2.4,1-3.2
		c0.2-0.8,0.5-1.8,0.6-2.3c0.3-1,0.4-2.1,0-3.2C26.7-1135.9,26.3-1135.9,26.2-1135.6z"/>
	<path id="Path_214" d="M57.4-1116.4c-0.2,0.3-0.8,6.1-1.1,11.3l-0.1,1.3l0.6-0.1c1.2-0.1,2.3-0.3,3.5-0.7c0.3-0.1,0.5-0.2,0.8-0.1
		c0.6,0.1,1.1-0.4,1.1-1.2c-0.3-2.1-1-4.2-2-6.2c-0.4-0.8-0.8-1.8-1-2.2c-0.3-0.7-0.7-1.4-1.2-2
		C57.6-1116.6,57.5-1116.6,57.4-1116.4z"/>
</g>
</svg>
