<?xml version="1.0" encoding="utf-8"?>
<!-- Generator: Adobe Illustrator 22.1.0, SVG Export Plug-In . SVG Version: 6.00 Build 0)  -->
<svg version="1.1" id="Layer_1" xmlns="http://www.w3.org/2000/svg" xmlns:xlink="http://www.w3.org/1999/xlink" x="0px" y="0px"
	 viewBox="0 0 119 111" style="enable-background:new 0 0 119 111;" xml:space="preserve">
<style type="text/css">
	.st0{fill:#5884B9;}
	.st1{opacity:0.5;}
	.st2{fill:#9BB5D5;}
</style>
<g>
	<path id="Rectangle_138" class="st2" d="M22.4,19.1h30.8c1.7,0,3,1.3,3,3V49c0,1.7-1.3,3-3,3H22.4c-1.7,0-3-1.3-3-3V22.1
		C19.4,20.4,20.7,19.1,22.4,19.1z"/>
	<path id="Rectangle_139" class="st2" d="M67.4,19.1h30.8c1.7,0,3,1.3,3,3V49c0,1.7-1.3,3-3,3H67.4c-1.7,0-3-1.3-3-3V22.1
		C64.4,20.4,65.8,19.1,67.4,19.1z"/>
	<path id="Rectangle_140" class="st2" d="M22.4,58.9h30.8c1.7,0,3,1.3,3,3v26.9c0,1.7-1.3,3-3,3H22.4c-1.7,0-3-1.3-3-3V61.9
		C19.4,60.3,20.7,58.9,22.4,58.9z"/>
	<path id="Rectangle_141" class="st2" d="M67.4,58.9h30.8c1.7,0,3,1.3,3,3v26.9c0,1.7-1.3,3-3,3H67.4c-1.7,0-3-1.3-3-3V61.9
		C64.4,60.3,65.8,58.9,67.4,58.9z"/>
</g>
</svg>
