<svg xmlns="http://www.w3.org/2000/svg" viewBox="0 0 122.77 122.77"><defs><style>.cls-1,.cls-2{fill:none;}.cls-2{stroke:#75cbd5;}.cls-3{fill:#75cbd5;}</style></defs><title>Asset 47</title><g id="Layer_2" data-name="Layer 2"><g id="Layer_1-2" data-name="Layer 1"><g id="Ellipse_77" data-name="Ellipse 77"><circle class="cls-1" cx="61.39" cy="61.39" r="61.27"/><circle class="cls-2" cx="61.39" cy="61.39" r="60.89"/></g><g id="service"><path id="Path_174" data-name="Path 174" class="cls-3" d="M69.14,28.76a13.55,13.55,0,0,0-2.31,4.34c-.58,1.73-.7,2.51-1,6.25a17.07,17.07,0,0,1-1.23,5.9c-.18.3-2.19,2.34-13.34,13.56L38.14,72l-.62.41a11,11,0,0,1-6,1.59,10.13,10.13,0,0,0-4.48,1.11,13.65,13.65,0,0,0-4.9,4.53A12.06,12.06,0,0,0,20.46,86a13,13,0,0,0,.76,4.28A13.84,13.84,0,0,0,23,93.53a1.56,1.56,0,0,0,2.13,0,4.52,4.52,0,0,0,.52-.77c.17-.31.86-1.39,1.53-2.41l2-3,.72-1.08.25,0c1.31-.15,4,1.1,5.21,2.41.67.75.7.85.31,1.52-.8,1.38-3.09,5.35-3.68,6.39-.47.83-.56,1.27-.36,1.77a1.8,1.8,0,0,0,1,.89,13.14,13.14,0,0,0,2.94.09,12,12,0,0,0,10-7.17,11.67,11.67,0,0,0,1-4.81c.2-3.41.5-5,1.2-6.37l.24-.48L57.94,70.38c5.57-5.59,11.66-11.64,13.52-13.45,3.27-3.19,3.4-3.31,3.93-3.62,1.44-.83,3.33-1.2,6.76-1.31a13,13,0,0,0,11.38-8.57,13.36,13.36,0,0,0-.06-9.08,14.27,14.27,0,0,0-1.91-3.7,1.58,1.58,0,0,0-2.11,0,5.79,5.79,0,0,0-.62.93c-.24.4-1.23,1.95-2.22,3.44L84.5,38.18l-.31.47-.36.05c-1.43.16-4.21-1.08-5.71-2.55-.6-.6-.88-1-.88-1.32a5.22,5.22,0,0,1,.55-1.11c.54-.92,2.47-4.26,3.65-6.35.7-1.22.79-1.55.59-2.11-.31-.85-.79-1.06-2.53-1.08a14,14,0,0,0-4.84.79A11.73,11.73,0,0,0,69.14,28.76Z"/></g><g id="service-2"><path id="Path_174-2" data-name="Path 174-2" class="cls-3" d="M96.45,74a13.84,13.84,0,0,0-4.34-2.3c-1.74-.58-2.52-.71-6.26-1A16.66,16.66,0,0,1,80,69.44c-.31-.18-2.34-2.18-13.56-13.34L53.21,43l-.4-.63a10.81,10.81,0,0,1-1.59-6,10.13,10.13,0,0,0-1.11-4.48A13.57,13.57,0,0,0,45.58,27a12.07,12.07,0,0,0-6.39-1.71,12.48,12.48,0,0,0-4.27.76,14.46,14.46,0,0,0-3.25,1.72,1.58,1.58,0,0,0,0,2.14,4.39,4.39,0,0,0,.76.51c.31.17,1.4.87,2.42,1.54l3,2,1.09.72,0,.26c.16,1.3-1.09,4-2.41,5.2-.74.68-.84.7-1.52.31l-6.38-3.67c-.84-.48-1.27-.56-1.77-.36a1.74,1.74,0,0,0-.89.94,13.25,13.25,0,0,0-.09,3A12,12,0,0,0,33,50.22a11.4,11.4,0,0,0,4.82,1c3.41.21,5,.5,6.37,1.21l.48.23L54.83,62.77c5.58,5.58,11.64,11.66,13.45,13.52,3.19,3.28,3.31,3.4,3.62,3.94.83,1.44,1.2,3.33,1.31,6.76a13,13,0,0,0,8.56,11.38,13.39,13.39,0,0,0,9.09-.06,14,14,0,0,0,3.7-1.92,1.57,1.57,0,0,0,0-2.11,5.25,5.25,0,0,0-.92-.61c-.4-.24-2-1.24-3.45-2.23L87,89.34,86.56,89s0-.17,0-.37c-.16-1.42,1.08-4.21,2.55-5.71.6-.59,1-.87,1.31-.87a5.07,5.07,0,0,1,1.12.55l6.34,3.65c1.22.7,1.55.79,2.11.59.86-.31,1.07-.8,1.08-2.54a14,14,0,0,0-.78-4.84A11.9,11.9,0,0,0,96.45,74Z"/></g></g></g></svg>