<svg xmlns="http://www.w3.org/2000/svg" viewBox="0 0 193.33 133.58"><defs><style>.cls-1{opacity:0.09;}.cls-1,.cls-3,.cls-4{isolation:isolate;}.cls-2{fill:#b6f2f8;}.cls-4{font-size:49px;fill:#fff;font-family:SegoeUIBlack, Segoe UI;letter-spacing:0.1em;}</style></defs><title>Asset 44</title><g id="Layer_2" data-name="Layer 2"><g id="Layer_1-2" data-name="Layer 1"><g id="faq"><path id="Path_199" data-name="Path 199" class="cls-1" d="M144.6,47.9a54.62,54.62,0,0,1-12.26,28.69,93.48,93.48,0,0,1-9.45,9.64,97.36,97.36,0,0,1-32.25,17.52c-2,.67-3.71,1.24-3.76,1.3A43.3,43.3,0,0,0,92,109.53a60.64,60.64,0,0,0,17.51,8.84,82.34,82.34,0,0,0,46.89.69l1.46-.43,2.92,1.77A134.71,134.71,0,0,0,179.4,130a62.42,62.42,0,0,0,12,3.51c1.14.11,1.89-.09,1.89-.53s-.84-1.35-2.19-2.5a82.45,82.45,0,0,1-8-7.2,29.89,29.89,0,0,1-5.93-7.88,17.45,17.45,0,0,1-1.63-5.08c0-.27.47-.76,1.69-1.72.9-.72,2.6-2.26,3.74-3.4,7.72-7.74,10.87-17,8.95-26.31-2-9.68-9.67-18.54-21.34-24.64a73.43,73.43,0,0,0-23.07-7.2l-.85-.12Z"/><path id="Path_198" data-name="Path 198" class="cls-2" d="M81.38.05c-14.47.93-24.88,3-35.9,7C22.12,15.73,6,30.78,1.55,48.23-1.9,61.74,1.75,75.5,12,87.38a72.73,72.73,0,0,0,16.13,13.55l1.42.87-.49.85a76.74,76.74,0,0,1-4.83,7c-4.67,5.81-10.26,11.18-19.53,18.76a30.2,30.2,0,0,0-4.36,3.94c-.38.67-.38.69,0,.94.51.38,2.84.34,5.27-.07,13.05-2.26,29.94-8.81,48-18.59l3.31-1.79,2.56.57A135.07,135.07,0,0,0,75.59,116a106.54,106.54,0,0,0,11.3.33,101.83,101.83,0,0,0,16-.81c27.38-3.46,50.35-15.27,62.47-32.16a44.41,44.41,0,0,0,7.9-18.26,53.77,53.77,0,0,0,.36-11.2c-1.57-13-9.12-24.95-21.9-34.52-14.11-10.56-32.44-17-54-19C94.89.13,83.75-.11,81.38.05Z"/></g><g id="FAQ-2" class="cls-3"><text class="cls-4" transform="translate(31.03 72.97)">FAQ</text></g></g></g></svg>