<svg xmlns="http://www.w3.org/2000/svg" viewBox="0 0 138.8 138.8"><defs><style>.cls-1{fill:#75cbd5;}.cls-2,.cls-3{fill:none;}.cls-3{stroke:#75cbd5;stroke-linecap:round;stroke-linejoin:round;stroke-width:3px;}</style></defs><title>Asset 48</title><g id="Layer_2" data-name="Layer 2"><g id="Layer_1-2" data-name="Layer 1"><g id="okey"><path id="Path_169" data-name="Path 169" class="cls-1" d="M105.52,32.43c-2,.39-4.75,2.25-8.77,5.81-1.84,1.62-3.29,3-6.48,6.19-5.13,5.14-8.65,8.88-18,19.15-4.43,4.86-7.07,7.74-8.74,9.54-4.63,5-7.45,7.69-8.1,7.81a14.19,14.19,0,0,1-3.12-.19,79.87,79.87,0,0,1-10.06-2.82c-6.67-2.19-8.13-2.59-9.63-2.59-.78,0-.84,0-1.2.18a1.9,1.9,0,0,0-1,1c-.26.68-.17,1,.7,2.78,2.76,5.6,7.61,12.06,13.64,18.17,5.66,5.73,10.51,9.32,13.82,10.25a5,5,0,0,0,2.25,0,2.55,2.55,0,0,0,1.37-1.37c.75-1.61,3.43-6,8.13-13.35,3-4.69,6.3-9.76,18.09-27.8,9.83-15,14.62-22.52,17.41-27.16.85-1.41,2.07-3.58,2.07-3.68s-.24-.51-.53-1c-.37-.7-.56-1-.65-1A3.79,3.79,0,0,0,105.52,32.43Z"/></g><g id="Ellipse_63" data-name="Ellipse 63"><circle class="cls-2" cx="69.4" cy="69.4" r="69.4"/><circle class="cls-3" cx="69.4" cy="69.4" r="67.9"/></g></g></g></svg>