<svg xmlns="http://www.w3.org/2000/svg" viewBox="0 0 167.61 178.94"><defs><style>.cls-1{fill:#75cbd5;}</style></defs><title>Path 168</title><g id="Layer_2" data-name="Layer 2"><g id="Layer_1-2" data-name="Layer 1"><path id="Path_168" data-name="Path 168" class="cls-1" d="M92.75,0C106,1.33,114.27,2.66,115,3.65c.31.4,1.36.66,3.25.78A29.35,29.35,0,0,1,132.8,9.37c1.66,1.41,2.25,2.77,3.11,7.2a58.78,58.78,0,0,1,1.37,12.62c0,4.36-.11,4.95-1.17,6.79-2.45,4.22-8.8,7.58-16.73,8.87-1,.17-2.66.5-3.62.74a8.24,8.24,0,0,1-3.24.35,18,18,0,0,1-8.74-2,21.13,21.13,0,0,0-2.75-.92,3.67,3.67,0,0,0-2.15.14,4.21,4.21,0,0,1-2.28.14,12.43,12.43,0,0,1-1.8-.44,13.65,13.65,0,0,0-1.9-.4A6.69,6.69,0,0,1,87,37.94l-.43-1-.49.84a50.68,50.68,0,0,0-4.86,14.48L80.11,57v4.55c0,3.81.11,6,.74,13.77.41,5.07.82,10.74,1,12.59.28,5.16.34,5.61.68,5.86s.4.11,1.38-.8a25.78,25.78,0,0,1,15.26-7.86c9.68-1.5,15.1-.9,21.33,2.33a95.65,95.65,0,0,1,12.32,8.41l3,2.19,2.57-1a201.89,201.89,0,0,1,21-5.81c4.09-.92,5.26-1.06,5.78-.7a1.12,1.12,0,0,1,.36.36c0,.24-1.1.55-5.07,1.46a116.72,116.72,0,0,0-11.59,3.15c-2.68.82-5.61,1.7-6.55,2a9.94,9.94,0,0,0-2,.76,31.57,31.57,0,0,0-3.76,4.63,20,20,0,0,0-2.79,7.55l-.13.7-.5-1.54A36.73,36.73,0,0,0,121.48,92a25.19,25.19,0,0,0-16.39-5.86,35.58,35.58,0,0,0-9.9,2,20.79,20.79,0,0,0-4.39,2.34c-.85.54-2.25,1.4-3.12,1.9a10.29,10.29,0,0,0-3.38,3,11.64,11.64,0,0,0-2.72,4.25,25,25,0,0,1-3,5.7,31.27,31.27,0,0,1-5,5.45c-5.39,5.19-7.69,6.9-10.75,8a57.58,57.58,0,0,1-10,1.75,82.82,82.82,0,0,1-10.45-.07,50.29,50.29,0,0,1-20.52-6c-2.07-1.3-3.06-2.39-2.7-3s.88-.53,3.73-.34a30.59,30.59,0,0,0,13.83-1.82c13.53-5,25.34-20.51,30.56-40.06a56.49,56.49,0,0,0,2.19-16.09,29,29,0,0,0-.73-8.36,10.36,10.36,0,0,1-.26-2.22c0-1.08,0-1.29-.37-1.54-.83-.63-2.4.09-6.73,3.17-3.3,2.34-3.87,2.71-4.29,2.71s-.37-.31.54-2.08a50.62,50.62,0,0,1,8-11,91.55,91.55,0,0,0,6.15-7.6c2-2.87,2.94-3.64,4.27-3.64.86,0,2,1,3.83,3.39.86,1.13,1.85,2.34,2.19,2.68a5.92,5.92,0,0,1,.9,1.16,3.16,3.16,0,0,0,3,1.59A23.35,23.35,0,0,0,88.7,31,11.5,11.5,0,0,1,91,30.77c.51.14.2.67-1.15,2.06a19.41,19.41,0,0,0-1.55,1.72L88,35l.67,1a8.39,8.39,0,0,0,1.24,1.49,13.21,13.21,0,0,0,4.14,2c.14,0,.38-.35.56-.88s1.15-2.54,2.17-4.58a65.37,65.37,0,0,0,2.88-6.25A10.25,10.25,0,0,1,103,25.5l.81-.32.36.35c.52.5.38,1.54-.74,5.53-1.24,4.49-1.4,5.38-1.11,7,.39,2.11.88,3,1.65,3,1.06,0,2.92-3.32,4.14-7.4a56.4,56.4,0,0,0,1.61-7.15,13.77,13.77,0,0,1,2.57-7.31A4.53,4.53,0,0,1,115,18a10.15,10.15,0,0,1,3.65,1.13l1.13.57-.1.86a33.74,33.74,0,0,1-1.37,4.31c-2,5.52-2.57,8.11-2.2,10.14a14,14,0,0,1,.2,2.33,5.74,5.74,0,0,0,.2,1.75l.19.39.42-.39a14.77,14.77,0,0,0,2.08-5.14c.2-.88.44-1.9.54-2.23a31.66,31.66,0,0,0,1.06-5,44.42,44.42,0,0,1,2-8.28c1.16-3,3.78-6.53,4.55-6.08a12.46,12.46,0,0,0,2.76,1.37,4.34,4.34,0,0,0,.88.21,8,8,0,0,0,.07-3c-.47-1.37-3.13-2.79-7-3.77A46.48,46.48,0,0,0,117.85,6a7.29,7.29,0,0,1-3.11-.74,17.56,17.56,0,0,0-6.42-1.76c-4.68-.84-9.25-1.45-12.9-1.76A36.94,36.94,0,0,0,80,3.38c-7.48,2-10.2,3.15-12.2,5.32a48.84,48.84,0,0,0-3.29,5.11c-1.37,2.34-3.6,6.06-5,8.3-3.27,5.38-4.49,7.46-5.23,8.87a11.25,11.25,0,0,1-1.93,2.52c-1.71,1.73-4.28,4.65-9.48,10.71-2.3,2.68-6.68,7.76-9.72,11.26-7,8-8.72,10.15-11.14,13.48-1.08,1.47-2.39,3.23-2.93,3.93A64.61,64.61,0,0,0,8.29,93.79a46.25,46.25,0,0,0-1.55,6.88,28.93,28.93,0,0,1-3,9.5A15.88,15.88,0,0,0,2,114.94,13.69,13.69,0,0,0,2,118.88a5,5,0,0,0,.82,1,3.4,3.4,0,0,1,.73.91,33,33,0,0,0,5,5.15,18.44,18.44,0,0,0,7,3.34c11.23,3.26,30.88,4.18,48,2.23a56.16,56.16,0,0,0,11.84-2.33.53.53,0,0,1,.32-.09c.06,0-1.48,1.14-3.36,2.44a98.35,98.35,0,0,0-10.24,7.45,11.34,11.34,0,0,0-2.94,4.23,8.68,8.68,0,0,0-.73,3.76c.63.48,23.67.71,30.77.32,18.94-1.05,29.67-3.22,34.4-7,1.27-1,1.38-1.32.77-2.32a5.79,5.79,0,0,0-2.19-1.95,43.09,43.09,0,0,0-6.35-2.67c-6.68-2.14-10.87-3.62-13.5-4.75A26.78,26.78,0,0,1,88.81,117.9a16,16,0,0,1-1.59-4.1,17.52,17.52,0,0,1,2.36,2.11c1.27,1.22,3.29,3,4.5,4,13.24,10.73,29.09,11.34,47.32,1.85a25.69,25.69,0,0,1,9-2.85,43.58,43.58,0,0,1,9.19-.88c3.16.09,4.23.54,4.23,1.77,0,1.62-3.3,4.35-9.58,8a22,22,0,0,0-2.3,1.43,4.11,4.11,0,0,0,.63.75,19.07,19.07,0,0,0,5.46,3.23c6.28,2.63,7.18,3.11,8.34,4.44,1.33,1.51,1.27.29,1.16,21.68-.08,13.67-.16,19.18-.32,19.4-.68,1-3.33-.86-6.39-4.47a67.18,67.18,0,0,1-5.5-7.69l-2.47-3.7-1.85,0A161.07,161.07,0,0,0,132.84,165a83.66,83.66,0,0,1-17.35,1.82A158.85,158.85,0,0,1,92,165a168.49,168.49,0,0,1-34.37-9.59,147,147,0,0,1-15.93-7.19,165.48,165.48,0,0,0-16.21-7.53,60.38,60.38,0,0,1-10.69-5.21A33.56,33.56,0,0,1,1.35,122.37,13.93,13.93,0,0,1,0,116.31a10.38,10.38,0,0,1,1.35-5.42,34.74,34.74,0,0,0,3.51-11A50.59,50.59,0,0,1,8,88.83a67.73,67.73,0,0,1,9.28-16.18c1.08-1.41,2.47-3.29,3.1-4.17C22,66.19,24.53,63.18,31,55.69c3.13-3.63,8.86-10.27,12.72-14.77A110.09,110.09,0,0,0,59.19,19.38C66.85,6.87,67.39,6.22,71.78,4.47A96.8,96.8,0,0,1,85.94.35,36.92,36.92,0,0,1,92.75,0Zm37.78,25.19c0,.22-.16,2.17-.38,4.34-.31,3.41-.34,4-.12,4.54.31.81.7.78,1.08-.1a17.06,17.06,0,0,0,.5-7.28c-.32-1.41-1.08-2.47-1.08-1.5Z"/></g></g></svg>