<svg xmlns="http://www.w3.org/2000/svg" viewBox="0 0 129.14 127.37"><defs><style>.cls-1{opacity:0.8;}.cls-2,.cls-3{isolation:isolate;}.cls-3{font-size:28px;font-family:SegoeUI-Bold, Segoe UI;font-weight:700;letter-spacing:0.1em;}</style></defs><title>Asset 41</title><g id="Layer_2" data-name="Layer 2"><g id="Layer_1-2" data-name="Layer 1"><g id="Settings" class="cls-1"><path id="Path_166" data-name="Path 166" d="M55.19.19A36.23,36.23,0,0,0,45,4l-.68.37,0,.33c0,.17.17,1.55.33,3.05s.32,2.94.34,3.18l.05.43-1,.73a32.83,32.83,0,0,0-4.69,4.28,9,9,0,0,1-.86.89s-6.14-1.17-6.75-1.31c-.12,0-.23.1-.72.85A38.49,38.49,0,0,0,27,25.15a17.71,17.71,0,0,0-.64,2.15c0,.05,1.2,1.05,2.66,2.23l2.7,2.18a3.61,3.61,0,0,1-.08,1,30.58,30.58,0,0,0-.35,4.78c0,1,0,2,0,2.42l.05.67-2.93,2c-1.61,1.07-2.93,2-2.93,2s.41,2,.64,2.85a34.75,34.75,0,0,0,2.69,7.05c.47.94.9,1.76.94,1.82s-.31.16,5.72-.5l1.34-.14.65.86a36.79,36.79,0,0,0,4.62,5,4.61,4.61,0,0,1,.63.62c0,.06-1.15,6.09-1.31,6.75,0,.11.08.21.68.6a38.36,38.36,0,0,0,7.56,3.83,21.1,21.1,0,0,0,3.2,1S54,73,55.17,71.56l2.15-2.67.29,0,.93.13a38,38,0,0,0,7,.27l.61,0,2,2.94,2,2.92.23,0a37.2,37.2,0,0,0,11-3.93l.66-.37,0-.32c0-.18-.17-1.55-.33-3.06s-.31-2.93-.34-3.17l0-.44.84-.63a36.39,36.39,0,0,0,5.06-4.63,4.61,4.61,0,0,1,.62-.63s6.09,1.15,6.75,1.31c.11,0,.21-.09.65-.76a36.22,36.22,0,0,0,3.13-5.86,26.56,26.56,0,0,0,1.63-4.82c0-.07-4.62-3.82-5.31-4.34-.08,0-.08-.19,0-1A29.42,29.42,0,0,0,95,37.66c0-1,0-2,0-2.42l-.05-.67,2.93-2c1.61-1.07,2.93-2,2.93-2s-.34-1.69-.54-2.5a36.52,36.52,0,0,0-3.46-8.75l-.33-.6-.36,0-2.74.3-3.14.34-.75.08-.73-1c-.41-.53-1-1.3-1.37-1.71a43.61,43.61,0,0,0-3.39-3.41,1.68,1.68,0,0,1-.43-.45c0-.05.3-1.62.68-3.47s.67-3.38.67-3.38-1.94-1.27-2.7-1.7A44.06,44.06,0,0,0,77.27,2.1,20.7,20.7,0,0,0,73.36.85c-.07,0-3.77,4.57-4.33,5.31-.06.08-.2.07-1,0a28.56,28.56,0,0,0-4.88-.36c-1,0-2.1,0-2.42,0l-.58,0L58.2,2.93A28.55,28.55,0,0,0,56.14,0,9,9,0,0,0,55.19.19Zm9.13,18.34a19,19,0,0,1,13.36,6.68,19.42,19.42,0,0,1,4.07,8.18,19.08,19.08,0,1,1-37.5,6.93,19.09,19.09,0,0,1,18-21.82A12.15,12.15,0,0,1,64.32,18.53Z"/></g><g id="Settings-2" class="cls-2"><text class="cls-3" transform="translate(0 115.31)">Settings</text></g></g></g></svg>