<?xml version="1.0" encoding="utf-8"?>
<!-- Generator: Adobe Illustrator 22.1.0, SVG Export Plug-In . SVG Version: 6.00 Build 0)  -->
<svg version="1.1" xmlns="http://www.w3.org/2000/svg" xmlns:xlink="http://www.w3.org/1999/xlink" x="0px" y="0px"
	 viewBox="0 0 500 500" style="enable-background:new 0 0 500 500;" xml:space="preserve">
<style type="text/css">
	.st0{fill:#B7DAED;}
	.st1{fill:none;}
	.st2{font-family:'ErasITC-Bold';}
	.st3{font-size:63px;}
	.st4{letter-spacing:1;}
	.st5{fill:#DCDCDC;}
	.st6{fill:#6B6966;}
	.st7{fill:#5C5A58;}
	.st8{fill:#FFB189;}
	.st9{fill:#FF9900;}
	.st10{fill:#6FA6E8;}
	.st11{fill:#FFBD00;}
	.st12{fill:#E09C79;}
	.st13{fill:#75CCD5;}
	.st14{fill:#FF9D6B;}
	.st15{fill:#5D4837;}
	.st16{fill:#AD795E;}
	.st17{fill:#FF9D00;}
	.st18{fill:#1D1D1D;}
	.st19{fill:#FFFFFF;}
	.st20{fill:#6FA6CF;}
	.st21{fill:#723400;}
	.st22{fill:#ABA8A3;}
	.st23{opacity:0.24;}
</style>
<g id="Background">
	<path class="st0" d="M382.7,221.2c0,73.2-59.3,132.5-132.5,132.5c-73.2,0-132.5-59.3-132.5-132.5c0-73.2,59.3-132.5,132.5-132.5
		C323.4,88.7,382.7,148.1,382.7,221.2z"/>
	<rect x="86.4" y="19.6" class="st1" width="341" height="126.4"/>
	<text transform="matrix(1 0 0 1 180.2763 61.626)"><tspan x="0" y="0" class="st2 st3 st4">Halo </tspan><tspan x="-39.1" y="75.6" class="st2 st3 st4">Service</tspan></text>
</g>
<g id="Objects">
	<path class="st5" d="M355.3,467c0,9.4-45.8,17-102.3,17c-56.5,0-102.3-7.6-102.3-17c0-9.4,45.8-17,102.3-17
		C309.6,450,355.3,457.6,355.3,467z"/>
	<g>
		<g>
			<polygon class="st6" points="217.9,424.9 264,398.4 262.9,354.9 214.9,371 			"/>
		</g>
		<g>
			<path class="st6" d="M220.1,420.6c0,2.9-2.4,5.2-5.2,5.2h-37.2c-2.9,0-5.2-2.4-5.2-5.2v-44.4c0-2.9,2.4-5.2,5.2-5.2h37.2
				c2.9,0,5.2,2.4,5.2,5.2V420.6z"/>
		</g>
		<g>
			<polygon class="st7" points="172.5,380.6 220.1,380.6 266.1,359.4 219.6,359.1 172.7,375.1 			"/>
		</g>
		<g>
			<path class="st8" d="M203.1,320.1l1,17c0,0-2.2,2.5-2.7,5.6c-0.5,3.1,1.9,11.2,4.2,11.3c2.3,0.2,13.2-1,14-1.5
				c0.8-0.5-0.5-5.5-0.5-5.5s-1.2-7.7-3-9.5c-1.8-1.8,0-17.5,0-17.5H203.1z"/>
		</g>
		<g>
			<path class="st9" d="M214,369.9H175c-0.5,0-1,0.1-1.5,0.2c-2.1,0.6-3.6,2.6-3.6,4.9H219C219,372.2,216.8,369.9,214,369.9z"/>
		</g>
		<g>
			<polygon class="st9" points="225.5,353.3 173.5,370.1 220.1,376.9 265.6,356.2 			"/>
		</g>
		<g>
			<path class="st9" d="M221.1,375.6c0,0.8-0.6,1.4-1.4,1.4h-49.4c-0.8,0-1.4-0.6-1.4-1.4l0,0c0-0.8,0.6-1.4,1.4-1.4h49.4
				C220.4,374.2,221.1,374.8,221.1,375.6L221.1,375.6z"/>
		</g>
		<g>
			<path class="st6" d="M202.9,368.1h-5.2v-12.8c0-4,3.1-8.1,6.9-9.2l26.9-7.6v19.1h-5.2v-12.1l-20.2,5.7c-1.7,0.5-3.1,2.4-3.1,4.1
				V368.1z"/>
		</g>
		<g>
			<path class="st10" d="M210.2,226.7c-5.5,7.8-15.7,49.2-13.7,61.3c2,12.1,5.3,35.7,5.3,35.7l16,0c0,0-3-41.5,1.3-46.7
				c4.3-5.2,6.1-8.3,6.1-8.3l15.9,52.8l34.1,4.9c0,0,7.8-54.2,27.8-72.1c0,0,2-33.9-13.8-35.3C273.5,217.6,219.2,214,210.2,226.7z"
				/>
		</g>
		<g>
			<path class="st11" d="M284.6,485.6c0,0-4.4-127-5.2-158c-0.9-31,17-64.1,17-64.1s-3.9-5.6-21.6-16l-54.5,0.7L219,277
				c0,0,6.7,29.2,5.3,72.8c-1.3,43.7-4.8,133.6-4.8,133.6l11.4-1.3c0,0,12.6-142.3,21.4-134.5c8.7,7.9,22.7,138,22.7,138h11.4H284.6
				z"/>
		</g>
		<g>
			<path class="st11" d="M237.1,217.5c1.1-2.5-12.5-1.5-14.5,1.1c-4,5.2-1.8,41.8-1.8,41.8l12.6-7.4
				C233.3,252.9,231,231.5,237.1,217.5z"/>
		</g>
		<g>
			<path class="st8" d="M265.3,218.1c0,0-14,8.7-25.2,0.5l1.1-12l0.1-1.7l0.5-6.1h21.7l0.9,10.2L265.3,218.1z"/>
		</g>
		<g>
			<path class="st11" d="M248.1,222.1l-7.7-7.5l-2.7,3.6C237.6,218.1,238.1,221.1,248.1,222.1z"/>
		</g>
		<g>
			<path class="st11" d="M265,214.5l-16.9,7.5c0,0,10.7,2.2,19.8-4.4L265,214.5z"/>
		</g>
		<g>
			<path class="st12" d="M264.5,209.1l-5.9,0.4c-10.7,0.4-15.5-1.6-17.4-2.8c-0.8-0.5-1.1-0.9-1.1-0.9s0.4-0.3,1.2-0.9
				c1.8-1.3,5.3-3.7,9.1-6.1h13.2L264.5,209.1z"/>
		</g>
		<g>
			<path class="st8" d="M232.8,161.8c0,0,1.8,18.9,1.8,24.3c0,5.4-4,13,0,17.3c4,4.2,32.2,6.3,36.1-2.2c2.8-6.1,4.2-23.3,0-42.6
				S232.8,161.8,232.8,161.8z"/>
		</g>
		<g>
			<path class="st8" d="M279.1,181.8c-0.9,3.8-4,6.4-7,5.7c-2.9-0.7-4.6-4.4-3.7-8.2c0.9-3.8,4-6.4,7-5.7
				C278.3,174.3,280,178,279.1,181.8z"/>
		</g>
		<g>
			<path d="M259.6,159.2c0,0,6,4.8,7.8,9.5c1.3,3.3,1.4,12.9,1.4,12.9h1.8c0,0,0.1-7.8,2.8-8c0,0,1.3-8.2,1-12.2
				C274.1,157.4,259.6,159.2,259.6,159.2z"/>
		</g>
		<g>
			<path class="st10" d="M274.4,166c0,0,4-17.3-4.7-20.5c-8.6-3.2-32.8-6.5-34.9,0.6c-2.1,7.1-2.7,19.9-2.7,19.9
				S245.2,143.2,274.4,166z"/>
		</g>
		<g>
			<path class="st13" d="M272,165.1C272,165.1,272,165.1,272,165.1c-8.4-3.2-35.9-12.4-38.6,2.5c0,0-0.1,0-0.2-0.1
				c-0.1,0-0.1,0-0.2-0.1c0,0,0,0,0,0c-0.1,0-0.1,0-0.2-0.1c0,0-0.1,0-0.1,0c-0.1,0-0.2-0.1-0.3-0.1c0,0-0.1,0-0.1,0
				c-4-1.7-17.9-7.9-20.6-13.2v0c-0.6-1.1-0.6-2.2,0.1-3.2c4.4-6.4,29.3-13.4,36.5-11.2C260,143,274,165.4,274.4,166
				C274.3,166,273.4,165.6,272,165.1z"/>
		</g>
		<g>
			<path d="M252.7,172.2c0,0,3.8-1.1,9.2,1.1c0,0,1.7-0.8,1.9-1.3c0.3-0.9-4.2-5.2-10.3-4.2C250,168.4,251.9,172.4,252.7,172.2z"/>
		</g>
		<g>
			<path d="M242.2,172.7c0,0-3.7-0.9-8.3,1.3c0,0-1.4-0.8-1.6-1.3c-0.3-0.9,3.5-5.1,8.7-4.2C244.2,169,242.6,172.5,242.2,172.7z"/>
		</g>
		<g>
			<path class="st14" d="M247.1,174.6c0,0-0.1,7-0.7,8.9c0,0-3.5,1.3-2.4,4.5c1.1,3.2,5.6,1.3,5.7,1.1c1-0.9,1.3-9-0.3-14.6
				C248.5,171.5,247.1,174.6,247.1,174.6z"/>
		</g>
		<g>
			<path class="st15" d="M258.4,192L258.4,192c0,0.8-0.2,1.6-0.4,2.3c0,0,0,0.1,0,0.1c0,0.1-0.1,0.2-0.1,0.3
				c-0.7,1.8-2.1,3.2-4.1,3.5c-3.2,0.6-5.7-0.6-7.4-1.8c-1.6-1.2-2.5-2.5-2.5-2.5s0.7,0,1.7-0.1c0.2,0,0.4,0,0.7-0.1
				c3-0.2,8.2-1.1,11.9-4C258.1,189.7,258.5,189.9,258.4,192z"/>
		</g>
		<g>
			<path class="st16" d="M260.4,178c0,1.2-0.8,2.1-1.7,2.1c-0.9,0-1.7-0.9-1.7-2.1c0-1.2,0.8-2.1,1.7-2.1
				C259.6,175.9,260.4,176.8,260.4,178z"/>
		</g>
		<g>
			<path class="st16" d="M242.8,178c0,1.2-0.8,2.1-1.7,2.1c-0.9,0-1.7-0.9-1.7-2.1c0-1.2,0.8-2.1,1.7-2.1
				C242.1,175.9,242.8,176.8,242.8,178z"/>
		</g>
		<g>
			<path class="st14" d="M273.4,183c0,0,1.5-0.8,0.8-2.4c-0.7-1.6-0.9-2.3-0.9-2.3s1.5-3.4,3-1.7c1.6,1.8,0.7,6-0.6,6.9
				C274.4,184.3,273.3,184.6,273.4,183z"/>
		</g>
		<g>
			<path class="st17" d="M232.8,255.3h30C262.9,255.3,245.3,260.9,232.8,255.3z"/>
		</g>
		<g>
			<path class="st8" d="M207.7,354c0,0,3.3-1.5,1.7-8.3c-0.7-2.9,9-3.5,10.5-2.6c2.7,1.7,1.4,8.8-0.8,9.9
				C216.8,354,207.7,354,207.7,354z"/>
		</g>
		<g>
			<path class="st11" d="M270.3,216.7c3.1-3,18,0.3,14.5,2.1c-7.1,3.6-6.2,38.2-6.2,38.2l-13.1,1.7
				C265.5,258.7,264,222.9,270.3,216.7z"/>
		</g>
		<g>
			<path class="st18" d="M219.7,479.6c0,0-24.8,5.7-23.4,8.2c1.4,2.5,6.3,5.2,13.6,3.4c3.2-0.8,12.4-3.8,13.8-3.7l0.5,0.5l6.9-0.7
				c0,0,1.1-8,0.4-8C230.8,479.3,219.7,479.6,219.7,479.6z"/>
		</g>
		<g>
			<path class="st18" d="M285.8,479.6c0,0,24.8,5.7,23.4,8.2c-1.4,2.5-6.3,5.2-13.6,3.4c-3.2-0.8-12.4-3.8-13.8-3.7l-0.5,0.5
				l-6.9-0.7c0,0-1.1-8-0.4-8C274.8,479.3,285.8,479.6,285.8,479.6z"/>
		</g>
		<g>
			<path class="st6" d="M188.8,425.8c0,0.9-0.8,1.7-1.7,1.7l0,0c-0.9,0-1.7-0.8-1.7-1.7l0,0c0-0.9,0.8-1.7,1.7-1.7l0,0
				C188.1,424.1,188.8,424.9,188.8,425.8L188.8,425.8z"/>
		</g>
		<g>
			<path class="st6" d="M198,425.8c0,0.9-0.8,1.7-1.7,1.7l0,0c-0.9,0-1.7-0.8-1.7-1.7l0,0c0-0.9,0.8-1.7,1.7-1.7l0,0
				C197.2,424.1,198,424.9,198,425.8L198,425.8z"/>
		</g>
		<g>
			<path class="st6" d="M207.2,425.8c0,0.9-0.8,1.7-1.7,1.7l0,0c-0.9,0-1.7-0.8-1.7-1.7l0,0c0-0.9,0.8-1.7,1.7-1.7l0,0
				C206.4,424.1,207.2,424.9,207.2,425.8L207.2,425.8z"/>
		</g>
		<g>
			<rect x="179.1" y="387.3" class="st7" width="34.5" height="28.9"/>
		</g>
		<g>
			<path class="st19" d="M258.4,192L258.4,192c0,0.8-0.2,1.6-0.4,2.3c0,0,0,0.1,0,0.1c-1.6,0.4-3.3,0.6-5.1,0.6
				c-2.7,0-5.3-0.4-7.3-1.2c0.2,0,0.4,0,0.7-0.1c3-0.2,8.2-1.1,11.9-4C258.1,189.7,258.5,189.9,258.4,192z"/>
		</g>
		<g>
			<path class="st17" d="M232.8,257.8c0,0-0.9,22.6,3,24.7s24.1,3.2,25.6,0.5c1.5-2.6,1.4-26.5,1.4-26.5s-1.2,25.6-4.4,26.2
				C255.3,283.2,235.1,283.4,232.8,257.8z"/>
		</g>
		<g>
			<path class="st10" d="M201.8,325c0,0,17.5-0.2,17.3-1.4c-0.3-1.2,1-12.7,0-12.7c-1,0-21-1.2-21,0.8
				C198,313.7,200.3,325,201.8,325z"/>
		</g>
		<path class="st8" d="M206.9,343.2c0,0,4.5,7.9,1.9,9.8c-1.3,0.9,6.8,2.2,6.1-2.8c-0.3-2.6-1.1-6.6-2.1-9.4c-0.9-2.7-3.3-4.8-4-5.2
			C207.2,334.8,205.4,339.9,206.9,343.2z"/>
		<path class="st17" d="M252.7,348.1c0,0-7.4-6.2-7.6-5.4c-0.2,0.7-16,136.6-16,136.6h2.3c0,0,16.6-123.2,20.6-130.9L252.7,348.1z"
			/>
		<path class="st17" d="M284.4,479.3c0,0-10.4-140.3-9.1-146.3c1.4-6,3.1-83.3,3.1-83.3s10.6,18.1,12.2,26.4
			c0.8,4.6-8.5,24.8-9.1,40.7c-0.6,15.9,4.3,162.8,4.3,162.8L284.4,479.3z"/>
		<g>
			
				<rect x="276.7" y="343.1" transform="matrix(0.9853 -0.1709 0.1709 0.9853 -54.6384 56.8877)" class="st6" width="52.6" height="5.2"/>
		</g>
		<g>
			<path class="st8" d="M300.5,318.9l-0.1,14.8c0,0-4.6,7.4-5.1,10.5c-0.5,3.1,3.6,10.6,5.9,10.8c2.3,0.2,11.9-2,12.7-2.5
				c0.8-0.5,2.6-6.9,2.6-6.9s-0.6-6.5-2.4-8.3c-1.8-1.8,0.1-18.2,0.1-18.2L300.5,318.9z"/>
		</g>
		<g>
			<path class="st10" d="M278.5,249.7c0,0,13.9,21.4,16.8,43.9c2.8,21.3,2.9,25.6,2.9,25.6h17.6c0,0,2.3-15-1.8-42.2
				c-3.8-25.3-9.9-51-19.4-55.8C274.9,211,278.5,249.7,278.5,249.7z"/>
		</g>
		<g>
			<path class="st6" d="M280.9,346.9c-0.3-0.6-0.6-1.1-1-1.6c-1.1-1.5-2.7-2.8-4.6-3.5c-1.1-0.4-2.2-0.6-3.4-0.6
				c-0.6,0-1.2,0.1-1.8,0.2c-2,0.4-3.9,1.4-5.3,2.8c-1.8,1.8-2.9,4.3-2.9,7c0,1.3,0.3,2.6,0.8,3.8c0,0.1,0.1,0.2,0.1,0.3
				c0.1,0.3,0.2,0.5,0.4,0.8c0.2,0.3,0.4,0.7,0.6,1c1.8,2.5,4.7,4.1,8,4.1c1.6,0,3-0.4,4.4-1c1.7-0.8,3-2,4-3.6
				c0.8-1.3,1.4-2.8,1.5-4.4c0-0.3,0-0.6,0-0.9C281.9,349.6,281.5,348.2,280.9,346.9z M275.9,353.6c-0.8,1.3-2.3,2.2-4,2.2
				c-2.6,0-4.7-2.1-4.7-4.7c0-0.7,0.2-1.4,0.5-2c0.8-1.6,2.4-2.7,4.2-2.7c0.4,0,0.8,0.1,1.2,0.2c1,0.3,1.9,0.9,2.5,1.7
				c0.6,0.8,1,1.8,1,2.9C276.6,352.1,276.4,352.9,275.9,353.6z"/>
		</g>
		<g>
			<path class="st6" d="M334.5,331.3c-4.8,0-8.9,3.5-9.8,8c-0.1,0.6-0.2,1.3-0.2,1.9c0,1.2,0.2,2.3,0.6,3.3c1.4,3.8,5,6.6,9.4,6.6
				c0.8,0,1.5-0.1,2.3-0.3l-2.9-5c-2.3-0.3-4.1-2.3-4.1-4.7c0-2.6,2.1-4.7,4.7-4.7c2.6,0,4.7,2.1,4.7,4.7c0,0.5-0.1,1-0.2,1.5
				l2.9,5.2c1.6-1.8,2.5-4.1,2.5-6.6C344.4,335.8,340,331.3,334.5,331.3z"/>
		</g>
		<g>
			
				<rect x="264.8" y="336.2" transform="matrix(0.869 -0.4948 0.4948 0.869 -134.7552 177.4666)" class="st11" width="6" height="14.1"/>
		</g>
		<g>
			<path class="st20" d="M298.2,321.6c0,0-2.6-11.6-1.8-11.8c0.8-0.2,21.7-3.7,22.1-1.1c0.4,2.6-0.7,13.7-2.9,14.1
				C313.3,323.1,298.2,321.6,298.2,321.6z"/>
		</g>
		<g>
			<g>
				<path class="st21" d="M223.4,308.2c0,0,23.8,10,60.1,0c0,0,0.3,12.7-1.5,13.1c-1.9,0.4-24.4,8.8-58.6-1.1
					C223.4,320.1,221.5,306.4,223.4,308.2z"/>
			</g>
			<g>
				<g>
					<path class="st22" d="M257.7,312.4c-0.6-0.4-1.3-0.6-2.1-0.6h-10.8c-0.6,0-1.2,0.1-1.7,0.4c-1.4,0.6-2.4,2-2.4,3.7v5.6
						c0,0.9,0.3,1.8,0.9,2.5c0.7,0.9,1.9,1.5,3.2,1.5h10.8c0.8,0,1.5-0.2,2.1-0.6c0.4-0.3,0.8-0.6,1.1-1c0.6-0.7,0.9-1.6,0.9-2.5
						v-5.6C259.6,314.4,258.8,313.1,257.7,312.4z M244.8,322.8c-0.6,0-1.2-0.4-1.3-1c0-0.1,0-0.2,0-0.3v-5.6c0-0.8,0.6-1.4,1.4-1.4
						h10.8c0.7,0,1.3,0.6,1.3,1.4v5.6c0,0.8-0.6,1.3-1.3,1.3H244.8z"/>
				</g>
			</g>
			<g>
				<path class="st22" d="M258.6,318.9c0,0.5-0.4,1-1,1h-2.8c-0.5,0-1-0.4-1-1l0,0c0-0.5,0.4-1,1-1h2.8
					C258.1,317.9,258.6,318.4,258.6,318.9L258.6,318.9z"/>
			</g>
		</g>
		<path class="st10" d="M272,165.1c-8.4-3.2-35.9-12.4-38.6,2.5c0,0-0.1,0-0.2-0.1c0,0-0.1,0-0.2-0.1c0,0,0,0,0,0
			c-0.1,0-0.1,0-0.2-0.1c0,0-0.1,0-0.1,0c-0.1,0-0.2-0.1-0.3-0.1c0,0-0.1,0-0.1,0c-4.1-1.7-18.9-8.1-20.6-13.2v0
			c-1.9-5.9,26-14.1,34.5-13C254.7,142,271.5,164.4,272,165.1z"/>
	</g>
</g>
<g id="Designed_by_Freepik">
	<g class="st23">
		<g>
			<path class="st5" d="M353.4,492.4v-0.2c-0.2,0.3-0.4,0.5-0.6,0.6c-0.2,0.2-0.4,0.3-0.7,0.4c-0.2,0.1-0.5,0.1-0.8,0.1
				c-0.4,0-0.8-0.1-1.1-0.2c-0.3-0.2-0.6-0.4-0.9-0.7c-0.2-0.3-0.4-0.7-0.6-1.1c-0.1-0.4-0.2-0.9-0.2-1.3c0-1,0.2-1.8,0.7-2.4
				c0.5-0.6,1.2-0.9,2-0.9c0.5,0,0.9,0.1,1.2,0.2c0.3,0.2,0.6,0.4,0.9,0.7v-2.4c0-0.3,0.1-0.6,0.2-0.8c0.1-0.2,0.3-0.3,0.6-0.3
				c0.2,0,0.4,0.1,0.6,0.2c0.1,0.2,0.2,0.4,0.2,0.7v7.2c0,0.3-0.1,0.5-0.2,0.7c-0.1,0.2-0.3,0.2-0.6,0.2c-0.2,0-0.4-0.1-0.6-0.2
				C353.5,492.9,353.4,492.7,353.4,492.4z M350.2,490c0,0.4,0.1,0.8,0.2,1.1c0.1,0.3,0.3,0.5,0.6,0.7c0.2,0.2,0.5,0.2,0.8,0.2
				c0.3,0,0.5-0.1,0.8-0.2c0.2-0.1,0.4-0.4,0.6-0.7c0.1-0.3,0.2-0.7,0.2-1.2c0-0.4-0.1-0.8-0.2-1.1c-0.1-0.3-0.3-0.6-0.6-0.7
				c-0.2-0.2-0.5-0.2-0.8-0.2c-0.3,0-0.6,0.1-0.8,0.3c-0.2,0.2-0.4,0.4-0.5,0.7C350.3,489.2,350.2,489.6,350.2,490z"/>
			<path class="st5" d="M360.6,490.4h-3.2c0,0.4,0.1,0.7,0.2,1c0.1,0.3,0.3,0.5,0.6,0.6c0.2,0.1,0.5,0.2,0.8,0.2
				c0.2,0,0.4,0,0.5-0.1c0.2,0,0.3-0.1,0.5-0.2c0.2-0.1,0.3-0.2,0.4-0.3c0.1-0.1,0.3-0.3,0.5-0.5c0.1-0.1,0.2-0.1,0.4-0.1
				c0.2,0,0.3,0,0.4,0.1c0.1,0.1,0.2,0.2,0.2,0.4c0,0.1-0.1,0.3-0.2,0.5c-0.1,0.2-0.3,0.4-0.5,0.6c-0.2,0.2-0.5,0.3-0.9,0.5
				c-0.4,0.1-0.8,0.2-1.2,0.2c-1,0-1.9-0.3-2.4-0.9c-0.6-0.6-0.9-1.4-0.9-2.4c0-0.5,0.1-0.9,0.2-1.3c0.1-0.4,0.4-0.8,0.6-1.1
				c0.3-0.3,0.6-0.5,1-0.7c0.4-0.2,0.8-0.2,1.3-0.2c0.6,0,1.2,0.1,1.6,0.4c0.5,0.3,0.8,0.6,1,1c0.2,0.4,0.3,0.9,0.3,1.3
				c0,0.4-0.1,0.7-0.4,0.8C361.4,490.4,361.1,490.4,360.6,490.4z M357.4,489.5h3c0-0.6-0.2-1-0.5-1.3c-0.3-0.3-0.6-0.4-1-0.4
				c-0.4,0-0.7,0.1-1,0.4C357.7,488.5,357.5,489,357.4,489.5z"/>
			<path class="st5" d="M368.1,491.2c0,0.5-0.1,0.8-0.3,1.2c-0.2,0.3-0.5,0.6-1,0.7c-0.4,0.2-1,0.2-1.6,0.2c-0.6,0-1.1-0.1-1.5-0.3
				c-0.4-0.2-0.7-0.4-0.9-0.7s-0.3-0.5-0.3-0.8c0-0.2,0.1-0.3,0.2-0.5c0.1-0.1,0.3-0.2,0.5-0.2c0.2,0,0.3,0,0.4,0.1
				c0.1,0.1,0.2,0.2,0.3,0.4c0.2,0.3,0.4,0.5,0.6,0.7c0.2,0.1,0.6,0.2,1,0.2c0.3,0,0.6-0.1,0.8-0.2c0.2-0.1,0.3-0.3,0.3-0.5
				c0-0.3-0.1-0.5-0.3-0.6c-0.2-0.1-0.6-0.3-1.1-0.4c-0.6-0.1-1-0.3-1.4-0.4c-0.4-0.2-0.6-0.4-0.8-0.6c-0.2-0.3-0.3-0.6-0.3-0.9
				c0-0.3,0.1-0.6,0.3-0.9c0.2-0.3,0.5-0.5,0.9-0.7c0.4-0.2,0.8-0.3,1.4-0.3c0.4,0,0.8,0,1.1,0.1c0.3,0.1,0.6,0.2,0.8,0.4
				c0.2,0.1,0.4,0.3,0.5,0.5c0.1,0.2,0.2,0.4,0.2,0.5c0,0.2-0.1,0.3-0.2,0.5c-0.1,0.1-0.3,0.2-0.5,0.2c-0.2,0-0.3,0-0.4-0.1
				c-0.1-0.1-0.3-0.2-0.4-0.4c-0.1-0.2-0.3-0.3-0.4-0.4c-0.2-0.1-0.4-0.1-0.7-0.1c-0.3,0-0.5,0.1-0.7,0.2c-0.2,0.1-0.3,0.3-0.3,0.5
				c0,0.2,0.1,0.3,0.2,0.4c0.1,0.1,0.3,0.2,0.6,0.3c0.2,0.1,0.6,0.2,1,0.3c0.5,0.1,0.9,0.3,1.2,0.4c0.3,0.2,0.6,0.4,0.7,0.6
				C368,490.7,368.1,490.9,368.1,491.2z"/>
			<path class="st5" d="M369.7,486c-0.2,0-0.4-0.1-0.6-0.2c-0.2-0.1-0.2-0.3-0.2-0.6c0-0.2,0.1-0.4,0.2-0.6c0.2-0.1,0.4-0.2,0.6-0.2
				c0.2,0,0.4,0.1,0.6,0.2c0.2,0.1,0.2,0.3,0.2,0.6c0,0.3-0.1,0.4-0.2,0.6C370.2,485.9,370,486,369.7,486z M370.6,487.6v4.7
				c0,0.3-0.1,0.6-0.2,0.7c-0.2,0.2-0.4,0.3-0.6,0.3c-0.2,0-0.4-0.1-0.6-0.3c-0.1-0.2-0.2-0.4-0.2-0.7v-4.7c0-0.3,0.1-0.6,0.2-0.7
				c0.1-0.2,0.3-0.2,0.6-0.2c0.2,0,0.4,0.1,0.6,0.2C370.5,487.1,370.6,487.4,370.6,487.6z"/>
			<path class="st5" d="M377.7,487.9v4.7c0,0.5-0.1,1-0.2,1.4c-0.1,0.4-0.3,0.7-0.6,1c-0.3,0.3-0.6,0.4-1,0.6
				c-0.4,0.1-0.9,0.2-1.5,0.2c-0.6,0-1.1-0.1-1.5-0.2c-0.4-0.2-0.8-0.4-1-0.6c-0.2-0.2-0.4-0.5-0.4-0.8c0-0.2,0.1-0.4,0.2-0.5
				c0.1-0.1,0.3-0.2,0.5-0.2c0.2,0,0.4,0.1,0.6,0.3c0.1,0.1,0.2,0.2,0.3,0.3c0.1,0.1,0.2,0.2,0.3,0.3c0.1,0.1,0.2,0.1,0.4,0.2
				c0.2,0,0.3,0.1,0.5,0.1c0.4,0,0.8-0.1,1-0.2c0.2-0.1,0.4-0.3,0.5-0.5c0.1-0.2,0.1-0.4,0.2-0.7c0-0.2,0-0.6,0-1.2
				c-0.3,0.4-0.5,0.6-0.9,0.8c-0.3,0.2-0.7,0.3-1.2,0.3c-0.5,0-1-0.1-1.4-0.4c-0.4-0.3-0.7-0.7-0.9-1.2c-0.2-0.5-0.3-1.1-0.3-1.7
				c0-0.5,0.1-0.9,0.2-1.3c0.1-0.4,0.3-0.7,0.6-1c0.2-0.3,0.5-0.5,0.9-0.6c0.3-0.1,0.7-0.2,1.1-0.2c0.5,0,0.9,0.1,1.2,0.3
				c0.3,0.2,0.7,0.5,0.9,0.8v-0.2c0-0.3,0.1-0.5,0.2-0.7c0.1-0.2,0.3-0.2,0.5-0.2c0.3,0,0.5,0.1,0.6,0.3
				C377.6,487.2,377.7,487.5,377.7,487.9z M373,490c0,0.7,0.1,1.2,0.4,1.5c0.3,0.3,0.7,0.5,1.1,0.5c0.3,0,0.5-0.1,0.8-0.2
				c0.2-0.1,0.4-0.4,0.6-0.7c0.2-0.3,0.2-0.6,0.2-1.1c0-0.7-0.1-1.2-0.4-1.6c-0.3-0.4-0.7-0.6-1.2-0.6c-0.5,0-0.8,0.2-1.1,0.5
				C373.1,488.8,373,489.3,373,490z"/>
			<path class="st5" d="M380.3,487.6v0.2c0.3-0.4,0.6-0.7,0.9-0.8c0.3-0.2,0.7-0.3,1.2-0.3c0.4,0,0.8,0.1,1.2,0.3
				c0.3,0.2,0.6,0.5,0.8,0.8c0.1,0.2,0.2,0.4,0.2,0.6c0,0.2,0,0.5,0,0.9v3c0,0.3-0.1,0.6-0.2,0.7c-0.1,0.2-0.3,0.3-0.6,0.3
				c-0.2,0-0.4-0.1-0.6-0.3c-0.2-0.2-0.2-0.4-0.2-0.7v-2.7c0-0.5-0.1-0.9-0.2-1.2c-0.1-0.3-0.4-0.4-0.9-0.4c-0.3,0-0.6,0.1-0.8,0.3
				c-0.2,0.2-0.4,0.4-0.5,0.7c-0.1,0.2-0.1,0.7-0.1,1.4v2c0,0.3-0.1,0.6-0.2,0.7c-0.2,0.2-0.4,0.2-0.6,0.2c-0.2,0-0.4-0.1-0.6-0.3
				c-0.2-0.2-0.2-0.4-0.2-0.7v-4.7c0-0.3,0.1-0.5,0.2-0.7c0.1-0.2,0.3-0.2,0.6-0.2c0.1,0,0.3,0,0.4,0.1c0.1,0.1,0.2,0.2,0.3,0.3
				C380.3,487.3,380.3,487.4,380.3,487.6z"/>
			<path class="st5" d="M390.2,490.4H387c0,0.4,0.1,0.7,0.2,1c0.1,0.3,0.3,0.5,0.6,0.6c0.2,0.1,0.5,0.2,0.8,0.2c0.2,0,0.4,0,0.5-0.1
				c0.2,0,0.3-0.1,0.5-0.2c0.2-0.1,0.3-0.2,0.4-0.3c0.1-0.1,0.3-0.3,0.5-0.5c0.1-0.1,0.2-0.1,0.4-0.1c0.2,0,0.3,0,0.4,0.1
				c0.1,0.1,0.2,0.2,0.2,0.4c0,0.1-0.1,0.3-0.2,0.5c-0.1,0.2-0.3,0.4-0.5,0.6c-0.2,0.2-0.5,0.3-0.9,0.5c-0.4,0.1-0.8,0.2-1.2,0.2
				c-1,0-1.9-0.3-2.4-0.9c-0.6-0.6-0.9-1.4-0.9-2.4c0-0.5,0.1-0.9,0.2-1.3c0.1-0.4,0.4-0.8,0.6-1.1c0.3-0.3,0.6-0.5,1-0.7
				c0.4-0.2,0.8-0.2,1.3-0.2c0.6,0,1.2,0.1,1.6,0.4c0.5,0.3,0.8,0.6,1,1c0.2,0.4,0.3,0.9,0.3,1.3c0,0.4-0.1,0.7-0.4,0.8
				C391,490.4,390.7,490.4,390.2,490.4z M387,489.5h3c0-0.6-0.2-1-0.5-1.3c-0.3-0.3-0.6-0.4-1-0.4c-0.4,0-0.7,0.1-1,0.4
				C387.2,488.5,387.1,489,387,489.5z"/>
			<path class="st5" d="M396.9,492.4v-0.2c-0.2,0.3-0.4,0.5-0.6,0.6c-0.2,0.2-0.4,0.3-0.7,0.4c-0.2,0.1-0.5,0.1-0.8,0.1
				c-0.4,0-0.8-0.1-1.1-0.2c-0.3-0.2-0.6-0.4-0.9-0.7c-0.2-0.3-0.4-0.7-0.6-1.1c-0.1-0.4-0.2-0.9-0.2-1.3c0-1,0.2-1.8,0.7-2.4
				c0.5-0.6,1.2-0.9,2-0.9c0.5,0,0.9,0.1,1.2,0.2c0.3,0.2,0.6,0.4,0.9,0.7v-2.4c0-0.3,0.1-0.6,0.2-0.8c0.1-0.2,0.3-0.3,0.6-0.3
				c0.2,0,0.4,0.1,0.6,0.2c0.1,0.2,0.2,0.4,0.2,0.7v7.2c0,0.3-0.1,0.5-0.2,0.7c-0.1,0.2-0.3,0.2-0.6,0.2c-0.2,0-0.4-0.1-0.6-0.2
				C396.9,492.9,396.9,492.7,396.9,492.4z M393.7,490c0,0.4,0.1,0.8,0.2,1.1c0.1,0.3,0.3,0.5,0.6,0.7c0.2,0.2,0.5,0.2,0.8,0.2
				c0.3,0,0.5-0.1,0.8-0.2c0.2-0.1,0.4-0.4,0.6-0.7c0.1-0.3,0.2-0.7,0.2-1.2c0-0.4-0.1-0.8-0.2-1.1c-0.1-0.3-0.3-0.6-0.6-0.7
				c-0.2-0.2-0.5-0.2-0.8-0.2c-0.3,0-0.6,0.1-0.8,0.3c-0.2,0.2-0.4,0.4-0.5,0.7C393.7,489.2,393.7,489.6,393.7,490z"/>
			<path class="st5" d="M403.5,485.2v2.5c0.3-0.3,0.6-0.6,0.9-0.7c0.3-0.2,0.7-0.3,1.2-0.3c0.5,0,1,0.1,1.4,0.4
				c0.4,0.3,0.7,0.6,1,1.1c0.2,0.5,0.3,1.1,0.3,1.7c0,0.5-0.1,0.9-0.2,1.4c-0.1,0.4-0.3,0.8-0.5,1.1c-0.2,0.3-0.5,0.5-0.9,0.7
				c-0.3,0.2-0.7,0.2-1.1,0.2c-0.3,0-0.5,0-0.7-0.1c-0.2-0.1-0.4-0.1-0.6-0.2c-0.2-0.1-0.3-0.2-0.4-0.3c-0.1-0.1-0.3-0.3-0.4-0.5
				v0.2c0,0.3-0.1,0.5-0.2,0.7c-0.1,0.2-0.3,0.2-0.6,0.2c-0.2,0-0.4-0.1-0.6-0.2c-0.1-0.2-0.2-0.4-0.2-0.7v-7.1
				c0-0.3,0.1-0.6,0.2-0.8c0.1-0.2,0.3-0.3,0.6-0.3c0.3,0,0.4,0.1,0.6,0.2C403.5,484.7,403.5,484.9,403.5,485.2z M403.6,490.1
				c0,0.6,0.1,1.1,0.4,1.5c0.3,0.3,0.7,0.5,1.2,0.5c0.4,0,0.8-0.2,1.1-0.5c0.3-0.4,0.4-0.9,0.4-1.5c0-0.4-0.1-0.8-0.2-1.1
				c-0.1-0.3-0.3-0.5-0.5-0.7c-0.2-0.2-0.5-0.3-0.8-0.3c-0.3,0-0.6,0.1-0.8,0.3c-0.2,0.2-0.4,0.4-0.6,0.7
				C403.7,489.2,403.6,489.6,403.6,490.1z"/>
			<path class="st5" d="M410.5,493.6l0.1-0.4l-2-5.1c-0.1-0.3-0.2-0.5-0.2-0.6c0-0.1,0-0.3,0.1-0.4c0.1-0.1,0.2-0.2,0.3-0.3
				c0.1-0.1,0.3-0.1,0.4-0.1c0.2,0,0.4,0.1,0.5,0.2c0.1,0.1,0.2,0.4,0.3,0.6l1.4,4l1.3-3.7c0.1-0.3,0.2-0.5,0.3-0.7
				c0.1-0.2,0.2-0.3,0.3-0.3c0.1-0.1,0.2-0.1,0.4-0.1c0.1,0,0.2,0,0.4,0.1c0.1,0.1,0.2,0.2,0.3,0.3c0.1,0.1,0.1,0.2,0.1,0.4
				c0,0.1,0,0.2-0.1,0.3c0,0.1-0.1,0.3-0.1,0.4l-2.1,5.6c-0.2,0.5-0.4,0.9-0.5,1.2c-0.2,0.3-0.4,0.5-0.7,0.6
				c-0.3,0.1-0.7,0.2-1.2,0.2c-0.5,0-0.8-0.1-1.1-0.2c-0.2-0.1-0.4-0.3-0.4-0.6c0-0.2,0.1-0.3,0.2-0.4c0.1-0.1,0.3-0.2,0.5-0.2
				c0.1,0,0.2,0,0.3,0c0.1,0,0.2,0,0.3,0c0.2,0,0.3,0,0.4-0.1c0.1-0.1,0.2-0.2,0.3-0.3C410.3,494,410.4,493.8,410.5,493.6z"/>
		</g>
		<g>
			<path class="st5" d="M434.1,486.9h0.4v-0.5c0-0.5,0.1-0.9,0.2-1.2c0.1-0.3,0.3-0.5,0.7-0.7c0.3-0.1,0.7-0.2,1.3-0.2
				c1,0,1.4,0.2,1.4,0.7c0,0.2-0.1,0.3-0.2,0.4c-0.1,0.1-0.2,0.2-0.4,0.2c-0.1,0-0.2,0-0.3,0c-0.1,0-0.3,0-0.4,0
				c-0.3,0-0.5,0.1-0.6,0.3c-0.1,0.2-0.1,0.4-0.1,0.7v0.4h0.4c0.6,0,0.9,0.2,0.9,0.6c0,0.3-0.1,0.4-0.2,0.5
				c-0.2,0.1-0.4,0.1-0.7,0.1h-0.4v4.3c0,0.3-0.1,0.6-0.2,0.7c-0.2,0.2-0.3,0.3-0.6,0.3c-0.2,0-0.4-0.1-0.6-0.3
				c-0.2-0.2-0.2-0.4-0.2-0.7V488h-0.4c-0.2,0-0.4-0.1-0.6-0.2c-0.1-0.1-0.2-0.3-0.2-0.4C433.3,487.1,433.6,486.9,434.1,486.9"/>
			<path class="st5" d="M439.5,491v1.4c0,0.3-0.1,0.6-0.2,0.7c-0.2,0.2-0.4,0.2-0.6,0.2c-0.2,0-0.4-0.1-0.6-0.3
				c-0.1-0.2-0.2-0.4-0.2-0.7v-4.5c0-0.7,0.3-1.1,0.8-1.1c0.3,0,0.5,0.1,0.6,0.3c0.1,0.2,0.2,0.4,0.2,0.8c0.2-0.3,0.4-0.6,0.6-0.8
				c0.2-0.2,0.5-0.3,0.8-0.3c0.3,0,0.7,0.1,1,0.3c0.3,0.2,0.5,0.4,0.5,0.7c0,0.2-0.1,0.4-0.2,0.5c-0.1,0.1-0.3,0.2-0.4,0.2
				c-0.1,0-0.2,0-0.4-0.1c-0.2-0.1-0.4-0.1-0.6-0.1c-0.2,0-0.4,0.1-0.6,0.2c-0.2,0.1-0.3,0.3-0.4,0.6c-0.1,0.2-0.1,0.5-0.2,0.9
				C439.5,490.1,439.5,490.5,439.5,491"/>
			<path class="st5" d="M447,490.4h-3.2c0,0.4,0.1,0.7,0.2,1c0.1,0.3,0.3,0.5,0.6,0.6c0.2,0.1,0.5,0.2,0.8,0.2c0.2,0,0.4,0,0.5-0.1
				c0.2,0,0.3-0.1,0.5-0.2c0.2-0.1,0.3-0.2,0.4-0.3c0.1-0.1,0.3-0.3,0.5-0.5c0.1-0.1,0.2-0.1,0.4-0.1c0.2,0,0.3,0,0.4,0.1
				c0.1,0.1,0.2,0.2,0.2,0.4c0,0.1-0.1,0.3-0.2,0.5c-0.1,0.2-0.3,0.4-0.5,0.6c-0.2,0.2-0.5,0.3-0.9,0.5c-0.4,0.1-0.8,0.2-1.2,0.2
				c-1.1,0-1.9-0.3-2.4-0.9c-0.6-0.6-0.9-1.4-0.9-2.4c0-0.5,0.1-0.9,0.2-1.3c0.1-0.4,0.3-0.8,0.6-1.1c0.3-0.3,0.6-0.5,1-0.7
				c0.4-0.2,0.8-0.2,1.3-0.2c0.6,0,1.2,0.1,1.6,0.4c0.5,0.3,0.8,0.6,1,1c0.2,0.4,0.3,0.9,0.3,1.3c0,0.4-0.1,0.7-0.4,0.8
				C447.7,490.4,447.4,490.4,447,490.4 M443.8,489.5h3c0-0.6-0.2-1-0.4-1.3c-0.3-0.3-0.6-0.4-1-0.4c-0.4,0-0.7,0.1-1,0.4
				C444,488.5,443.9,489,443.8,489.5"/>
			<path class="st5" d="M453.8,490.4h-3.2c0,0.4,0.1,0.7,0.2,1c0.1,0.3,0.3,0.5,0.6,0.6c0.2,0.1,0.5,0.2,0.8,0.2
				c0.2,0,0.4,0,0.5-0.1c0.2,0,0.3-0.1,0.5-0.2c0.2-0.1,0.3-0.2,0.4-0.3c0.1-0.1,0.3-0.3,0.5-0.5c0.1-0.1,0.2-0.1,0.4-0.1
				c0.2,0,0.3,0,0.4,0.1c0.1,0.1,0.2,0.2,0.2,0.4c0,0.1-0.1,0.3-0.2,0.5c-0.1,0.2-0.3,0.4-0.5,0.6c-0.2,0.2-0.5,0.3-0.9,0.5
				c-0.3,0.1-0.8,0.2-1.2,0.2c-1.1,0-1.9-0.3-2.4-0.9c-0.6-0.6-0.9-1.4-0.9-2.4c0-0.5,0.1-0.9,0.2-1.3c0.1-0.4,0.4-0.8,0.6-1.1
				c0.3-0.3,0.6-0.5,1-0.7c0.4-0.2,0.9-0.2,1.3-0.2c0.6,0,1.2,0.1,1.6,0.4c0.5,0.3,0.8,0.6,1,1c0.2,0.4,0.3,0.9,0.3,1.3
				c0,0.4-0.1,0.7-0.4,0.8C454.5,490.4,454.2,490.4,453.8,490.4 M450.6,489.5h3c0-0.6-0.2-1-0.4-1.3c-0.3-0.3-0.6-0.4-1-0.4
				c-0.4,0-0.7,0.1-1,0.4C450.8,488.5,450.6,489,450.6,489.5"/>
			<path class="st5" d="M457.4,487.6v0.2c0.3-0.4,0.6-0.7,1-0.8c0.3-0.2,0.7-0.3,1.1-0.3c0.5,0,1,0.1,1.4,0.4c0.4,0.3,0.8,0.6,1,1.1
				c0.2,0.5,0.4,1.1,0.4,1.8c0,0.5-0.1,1-0.2,1.4c-0.1,0.4-0.3,0.8-0.6,1.1c-0.2,0.3-0.5,0.5-0.9,0.7c-0.3,0.2-0.7,0.2-1.1,0.2
				c-0.5,0-0.9-0.1-1.2-0.3c-0.3-0.2-0.6-0.5-0.9-0.8v2.4c0,0.7-0.3,1.1-0.8,1.1c-0.3,0-0.5-0.1-0.6-0.3c-0.1-0.2-0.1-0.5-0.1-0.8
				v-7c0-0.3,0.1-0.5,0.2-0.7c0.1-0.1,0.3-0.2,0.6-0.2c0.2,0,0.4,0.1,0.6,0.2C457.3,487.1,457.4,487.3,457.4,487.6 M460.6,490
				c0-0.4-0.1-0.8-0.2-1.1c-0.1-0.3-0.3-0.5-0.5-0.7c-0.2-0.2-0.5-0.3-0.8-0.3c-0.4,0-0.8,0.2-1.1,0.5c-0.3,0.4-0.5,0.9-0.5,1.6
				c0,0.6,0.2,1.2,0.5,1.5c0.3,0.4,0.7,0.5,1.1,0.5c0.3,0,0.5-0.1,0.8-0.2c0.2-0.2,0.4-0.4,0.6-0.7
				C460.5,490.8,460.6,490.4,460.6,490"/>
			<path class="st5" d="M463.8,486c-0.2,0-0.4-0.1-0.6-0.2c-0.2-0.1-0.2-0.3-0.2-0.6c0-0.2,0.1-0.4,0.3-0.6c0.2-0.1,0.4-0.2,0.6-0.2
				c0.2,0,0.4,0.1,0.6,0.2c0.2,0.1,0.2,0.3,0.2,0.6c0,0.3-0.1,0.4-0.2,0.6C464.3,485.9,464.1,486,463.8,486 M464.7,487.6v4.7
				c0,0.3-0.1,0.6-0.2,0.7c-0.2,0.2-0.4,0.3-0.6,0.3c-0.2,0-0.4-0.1-0.6-0.3c-0.1-0.2-0.2-0.4-0.2-0.7v-4.7c0-0.3,0.1-0.6,0.2-0.7
				c0.2-0.2,0.3-0.2,0.6-0.2c0.2,0,0.4,0.1,0.6,0.2C464.6,487.1,464.7,487.4,464.7,487.6"/>
			<path class="st5" d="M469.9,492.6l-1.4-2.4l-0.9,0.8v1.3c0,0.3-0.1,0.6-0.3,0.7c-0.2,0.2-0.4,0.3-0.6,0.3c-0.3,0-0.4-0.1-0.6-0.3
				c-0.1-0.2-0.2-0.4-0.2-0.7v-7c0-0.4,0.1-0.6,0.2-0.8c0.1-0.2,0.3-0.3,0.6-0.3c0.3,0,0.4,0.1,0.6,0.3c0.1,0.2,0.2,0.4,0.2,0.8v4
				l1.8-1.9c0.2-0.2,0.4-0.4,0.5-0.5c0.1-0.1,0.3-0.1,0.4-0.1c0.2,0,0.4,0.1,0.5,0.2c0.1,0.1,0.2,0.3,0.2,0.5c0,0.2-0.2,0.6-0.7,1
				l-0.9,0.8l1.7,2.6c0.1,0.2,0.2,0.3,0.3,0.4c0.1,0.1,0.1,0.2,0.1,0.3c0,0.3-0.1,0.5-0.2,0.6c-0.1,0.1-0.3,0.2-0.6,0.2
				c-0.2,0-0.4,0-0.5-0.2C470.2,493.1,470.1,492.9,469.9,492.6"/>
			<path class="st5" d="M473.5,493.4c-0.2,0-0.5-0.1-0.6-0.2c-0.2-0.2-0.3-0.4-0.3-0.7c0-0.2,0.1-0.5,0.3-0.6
				c0.2-0.2,0.4-0.3,0.6-0.3c0.3,0,0.5,0.1,0.6,0.3c0.2,0.2,0.3,0.4,0.3,0.6c0,0.3-0.1,0.5-0.3,0.7
				C473.9,493.3,473.7,493.4,473.5,493.4"/>
			<path class="st5" d="M481.6,491.3c0,0.2-0.1,0.4-0.2,0.7c-0.1,0.2-0.3,0.5-0.6,0.7c-0.3,0.2-0.6,0.4-0.9,0.5
				c-0.4,0.1-0.8,0.2-1.3,0.2c-1,0-1.8-0.3-2.4-0.9c-0.6-0.6-0.8-1.4-0.8-2.4c0-0.7,0.1-1.3,0.4-1.8c0.3-0.5,0.6-0.9,1.1-1.2
				c0.5-0.3,1.1-0.4,1.8-0.4c0.4,0,0.8,0.1,1.2,0.2c0.4,0.1,0.7,0.3,0.9,0.5c0.2,0.2,0.4,0.4,0.6,0.6c0.1,0.2,0.2,0.4,0.2,0.6
				c0,0.2-0.1,0.4-0.2,0.5c-0.1,0.1-0.3,0.2-0.5,0.2c-0.1,0-0.3,0-0.3-0.1c-0.1-0.1-0.2-0.2-0.3-0.3c-0.2-0.3-0.4-0.5-0.6-0.7
				c-0.2-0.2-0.5-0.2-0.8-0.2c-0.5,0-0.9,0.2-1.2,0.6c-0.3,0.4-0.4,0.9-0.4,1.5c0,0.3,0,0.6,0.1,0.8c0.1,0.3,0.2,0.5,0.3,0.7
				c0.1,0.2,0.3,0.3,0.5,0.4c0.2,0.1,0.4,0.1,0.7,0.1c0.3,0,0.6-0.1,0.8-0.2c0.2-0.2,0.4-0.4,0.6-0.7c0.1-0.2,0.2-0.3,0.3-0.4
				c0.1-0.1,0.3-0.2,0.4-0.2c0.2,0,0.4,0.1,0.5,0.2C481.5,491,481.6,491.2,481.6,491.3"/>
			<path class="st5" d="M488.6,490c0,0.5-0.1,0.9-0.2,1.3c-0.2,0.4-0.4,0.8-0.7,1.1c-0.3,0.3-0.6,0.5-1,0.7
				c-0.4,0.2-0.8,0.2-1.3,0.2c-0.5,0-0.9-0.1-1.3-0.2c-0.4-0.2-0.7-0.4-1-0.7c-0.3-0.3-0.5-0.7-0.7-1.1c-0.1-0.4-0.2-0.9-0.2-1.3
				c0-0.5,0.1-0.9,0.2-1.4c0.2-0.4,0.4-0.8,0.7-1.1c0.3-0.3,0.6-0.5,1-0.7c0.4-0.2,0.8-0.2,1.3-0.2c0.5,0,0.9,0.1,1.3,0.2
				c0.4,0.2,0.7,0.4,1,0.7c0.3,0.3,0.5,0.6,0.7,1.1C488.5,489.1,488.6,489.5,488.6,490 M487,490c0-0.7-0.1-1.2-0.4-1.6
				c-0.3-0.4-0.7-0.6-1.2-0.6c-0.3,0-0.6,0.1-0.8,0.2c-0.2,0.2-0.4,0.4-0.6,0.7c-0.1,0.3-0.2,0.7-0.2,1.1c0,0.4,0.1,0.8,0.2,1.1
				c0.1,0.3,0.3,0.6,0.6,0.7c0.2,0.2,0.5,0.3,0.8,0.3c0.5,0,0.9-0.2,1.2-0.6C486.8,491.2,487,490.7,487,490"/>
			<path class="st5" d="M494.8,490.2v2.2c0,0.3-0.1,0.6-0.2,0.8c-0.2,0.2-0.4,0.3-0.6,0.3c-0.2,0-0.4-0.1-0.6-0.3
				c-0.2-0.2-0.2-0.4-0.2-0.8v-2.6c0-0.4,0-0.7,0-1c0-0.2-0.1-0.4-0.2-0.6c-0.1-0.1-0.3-0.2-0.6-0.2c-0.5,0-0.9,0.2-1.1,0.6
				c-0.2,0.4-0.3,0.9-0.3,1.6v2.2c0,0.3-0.1,0.6-0.2,0.8c-0.2,0.2-0.4,0.3-0.6,0.3c-0.2,0-0.5-0.1-0.6-0.3c-0.2-0.2-0.2-0.4-0.2-0.8
				v-4.7c0-0.3,0.1-0.5,0.2-0.7c0.1-0.2,0.3-0.2,0.6-0.2c0.2,0,0.4,0.1,0.6,0.2c0.2,0.1,0.2,0.4,0.2,0.6v0.2
				c0.3-0.3,0.6-0.6,0.9-0.7c0.3-0.2,0.7-0.2,1.1-0.2c0.4,0,0.8,0.1,1.1,0.2c0.3,0.2,0.5,0.4,0.7,0.7c0.3-0.3,0.6-0.6,0.9-0.7
				c0.3-0.2,0.7-0.2,1-0.2c0.4,0,0.8,0.1,1.2,0.3c0.3,0.2,0.6,0.4,0.7,0.8c0.1,0.3,0.2,0.8,0.2,1.4v3.2c0,0.3-0.1,0.6-0.2,0.8
				c-0.2,0.2-0.4,0.3-0.6,0.3c-0.2,0-0.4-0.1-0.6-0.3c-0.2-0.2-0.2-0.4-0.2-0.8v-2.7c0-0.4,0-0.6,0-0.8c0-0.2-0.1-0.4-0.2-0.5
				c-0.1-0.1-0.3-0.2-0.6-0.2c-0.2,0-0.4,0.1-0.6,0.2c-0.2,0.1-0.3,0.3-0.5,0.5C494.9,489,494.8,489.5,494.8,490.2"/>
		</g>
		<g>
			<path class="st5" d="M418.9,489.6C418.9,489.6,418.9,489.6,418.9,489.6C418.9,489.6,418.9,489.6,418.9,489.6z"/>
			<path class="st5" d="M419,490.2C419,490.2,419,490.2,419,490.2c0-0.1-0.1-0.3-0.1-0.4C418.9,489.9,418.9,490,419,490.2z"/>
			<path class="st5" d="M419.5,491.7C419.5,491.7,419.5,491.7,419.5,491.7C419.5,491.7,419.5,491.7,419.5,491.7z"/>
			<path class="st5" d="M419.4,491.6C419.4,491.5,419.4,491.5,419.4,491.6C419.4,491.5,419.4,491.5,419.4,491.6z"/>
			<path class="st5" d="M419.1,490.7c0.1,0.3,0.2,0.5,0.3,0.7C419.3,491.2,419.2,491,419.1,490.7L419.1,490.7z"/>
			<path class="st5" d="M425.2,483.4c0.3,0,0.5,0,0.8,0.1l0.1-0.5c0,0-0.7-0.2-1.7-0.1l-0.1-0.3c0.3-0.1,0.5-0.3,0.5-0.7
				c0-0.4-0.3-0.7-0.7-0.7c-0.4,0-0.7,0.3-0.7,0.7c0,0.3,0.2,0.6,0.5,0.7l0.1,0.3c-1,0.1-1.8,0.5-1.8,0.5l0.1,0.4
				c0.6-0.2,1.2-0.3,1.7-0.4C424.5,483.4,424.9,483.4,425.2,483.4z"/>
			<path class="st5" d="M419.5,485.8L419.5,485.8C419.5,485.8,419.5,485.7,419.5,485.8l-0.1-0.2l-0.3-0.2c0,0-0.5,0.5-0.9,1.3
				c0,0,0-0.1-0.1-0.1c-0.1-0.1-0.3-0.2-0.5-0.2c0,0,0,0,0,0c-0.1,0-0.2,0-0.3-0.1c0.1-0.1,0.1-0.2,0.1-0.3c0-0.2-0.2-0.4-0.4-0.4
				c-0.2,0-0.4,0.2-0.4,0.4c0,0.2,0.2,0.4,0.4,0.4c0,0,0.1,0,0.1,0c0.1,0.1,0.3,0.2,0.5,0.2c0.1,0,0.2,0,0.3,0.1
				c0.1,0.1,0.1,0.2,0.1,0.3c0,0,0,0,0,0c-0.3,0.7-0.2,1.7-0.2,1.7l0.7,0c0-0.3,0.1-0.9,0.2-1.4C419,486.4,419.5,485.8,419.5,485.8z
				"/>
			<path class="st5" d="M431,483.9c-0.2,0-0.4,0.2-0.4,0.4c0,0,0,0.1,0,0.1c-0.1,0.1-0.2,0.3-0.2,0.5c0,0.1,0,0.2-0.1,0.3
				c-0.1,0-0.1,0.1-0.2,0.1c-0.5-0.7-1.1-1.1-1.1-1.1l-0.5,0.5c0.4,0.3,0.7,0.7,1.1,1.3c0.2,0.4,0.5,0.8,0.7,1.3l0.6-0.3
				c0,0-0.3-0.7-0.7-1.4c0.1,0,0.1-0.1,0.2-0.1c0.1-0.1,0.2-0.3,0.2-0.5c0-0.1,0-0.2,0.1-0.3c0.1,0.1,0.2,0.1,0.3,0.1
				c0.2,0,0.4-0.2,0.4-0.4C431.4,484.1,431.2,483.9,431,483.9z"/>
			<path class="st5" d="M429.3,489.7c-0.9,0.4-2.3,1-4.3,1.3c-0.8,0.1-1.5,0.1-2.2,0.1c-0.9,0-1.7-0.1-2.2-0.1
				c-0.7-0.1-1.2-0.2-1.5-0.3c0.1,0.2,0.2,0.5,0.3,0.7c0,0,0,0,0,0c0,0,0,0.1,0,0.1c0,0,0,0.1,0,0.1c0,0,0,0,0,0
				c0.2,0.4,0.4,0.7,0.7,1c0.9,1,1.8,1.1,1.8,1.1l0,0l0,0c0,0,0.8,0.3,2.1,0.3c1.2,0,2.4-0.2,3.6-0.7c0.8-0.4,1.7-1.1,2-1.7
				c0.3-0.5,0.5-0.9,0.7-1.4c0.1-0.3,0.1-0.7,0.1-1.2C430.2,489.2,429.8,489.5,429.3,489.7z"/>
			<path class="st5" d="M419.8,486c0,0-0.4,0.6-0.7,1.4c-0.2,0.6-0.2,1.5-0.2,1.5v0c0,0.2,0,0.4,0,0.6c0,0,0,0,0,0c0,0,0,0.1,0,0.1
				c0,0.1,0,0.3,0.1,0.4c0.4,0.1,3.1,0.7,6,0.3c1.8-0.3,3.2-0.8,4.1-1.2c0.7-0.3,1.2-0.7,1.3-0.8c-0.2-0.6-0.7-1.7-1.1-2.3
				c-1.3-1.8-2.6-2.3-3.3-2.4c-0.3,0-0.5-0.1-0.8-0.1c-0.3,0-0.6,0-1.1,0.1c-0.5,0-1,0.2-1.6,0.4c-0.8,0.3-1.6,0.7-2.2,1.3l0,0
				C420.2,485.6,420,485.7,419.8,486z M427.5,485.6c0.6,0,1.1,0.5,1.1,1.1c0,0.6-0.5,1.1-1.1,1.1c-0.6,0-1.1-0.5-1.1-1.1
				C426.4,486.1,426.9,485.6,427.5,485.6z M422.3,485.6c1,0,1.8,0.8,1.8,1.8s-0.8,1.8-1.8,1.8c-1,0-1.8-0.8-1.8-1.8
				S421.3,485.6,422.3,485.6z"/>
		</g>
	</g>
</g>
</svg>
