<svg enable-background="new 0 0 500 500" viewBox="0 0 500 500" xml:space="preserve" xmlns="http://www.w3.org/2000/svg"><path d="m382.7 221.2c0 73.2-59.3 132.5-132.5 132.5s-132.5-59.3-132.5-132.5 59.3-132.5 132.5-132.5 132.5 59.4 132.5 132.5z" fill="#b7daed"/><path d="m86.4 19.6h341v126.4h-341z" fill="none"/><text transform="translate(180.2763 61.626)"><tspan font-family="'ErasITC-Bold'" font-size="63" letter-spacing="1" x="0" y="0">Halo </tspan><tspan font-family="'ErasITC-Bold'" font-size="63" letter-spacing="1" x="-39.1" y="75.6">Service</tspan></text><path d="m355.3 467c0 9.4-45.8 17-102.3 17s-102.3-7.6-102.3-17 45.8-17 102.3-17c56.6 0 102.3 7.6 102.3 17z" fill="#dcdcdc"/><path d="m217.9 424.9 46.1-26.5-1.1-43.5-48 16.1z" fill="#6b6966"/><path d="m220.1 420.6c0 2.9-2.4 5.2-5.2 5.2h-37.2c-2.9 0-5.2-2.4-5.2-5.2v-44.4c0-2.9 2.4-5.2 5.2-5.2h37.2c2.9 0 5.2 2.4 5.2 5.2z" fill="#6b6966"/><path d="m172.5 380.6h47.6l46-21.2-46.5-.3-46.9 16z" fill="#5c5a58"/><path d="m203.1 320.1 1 17s-2.2 2.5-2.7 5.6 1.9 11.2 4.2 11.3c2.3.2 13.2-1 14-1.5s-.5-5.5-.5-5.5-1.2-7.7-3-9.5 0-17.5 0-17.5h-13z" fill="#ffb189"/><path d="m214 369.9h-39c-.5 0-1 .1-1.5.2-2.1.6-3.6 2.6-3.6 4.9h49.1c0-2.8-2.2-5.1-5-5.1z" fill="#f90"/><path d="m225.5 353.3-52 16.8 46.6 6.8 45.5-20.7z" fill="#f90"/><path d="m221.1 375.6c0 .8-.6 1.4-1.4 1.4h-49.4c-.8 0-1.4-.6-1.4-1.4 0-.8.6-1.4 1.4-1.4h49.4c.7 0 1.4.6 1.4 1.4z" fill="#f90"/><path d="m202.9 368.1h-5.2v-12.8c0-4 3.1-8.1 6.9-9.2l26.9-7.6v19.1h-5.2v-12.1l-20.2 5.7c-1.7.5-3.1 2.4-3.1 4.1v12.8z" fill="#6b6966"/><path d="m210.2 226.7c-5.5 7.8-15.7 49.2-13.7 61.3s5.3 35.7 5.3 35.7h16s-3-41.5 1.3-46.7 6.1-8.3 6.1-8.3l15.9 52.8 34.1 4.9s7.8-54.2 27.8-72.1c0 0 2-33.9-13.8-35.3-15.7-1.4-70-5-79 7.7z" fill="#6fa6e8"/><path d="m284.6 485.6s-4.4-127-5.2-158c-.9-31 17-64.1 17-64.1s-3.9-5.6-21.6-16l-54.5.7-1.3 28.8s6.7 29.2 5.3 72.8c-1.3 43.7-4.8 133.6-4.8 133.6l11.4-1.3s12.6-142.3 21.4-134.5c8.7 7.9 22.7 138 22.7 138h11.4z" fill="#ffbd00"/><path d="m237.1 217.5c1.1-2.5-12.5-1.5-14.5 1.1-4 5.2-1.8 41.8-1.8 41.8l12.6-7.4c-.1-.1-2.4-21.5 3.7-35.5z" fill="#ffbd00"/><path d="m265.3 218.1s-14 8.7-25.2.5l1.1-12 .1-1.7.5-6.1h21.7l.9 10.2z" fill="#ffb189"/><path d="m248.1 222.1-7.7-7.5-2.7 3.6c-.1-.1.4 2.9 10.4 3.9z" fill="#ffbd00"/><path d="m265 214.5-16.9 7.5s10.7 2.2 19.8-4.4z" fill="#ffbd00"/><path d="m264.5 209.1-5.9.4c-10.7.4-15.5-1.6-17.4-2.8-.8-.5-1.1-.9-1.1-.9s.4-.3 1.2-.9c1.8-1.3 5.3-3.7 9.1-6.1h13.2z" fill="#e09c79"/><path d="m232.8 161.8s1.8 18.9 1.8 24.3-4 13 0 17.3c4 4.2 32.2 6.3 36.1-2.2 2.8-6.1 4.2-23.3 0-42.6s-37.9 3.2-37.9 3.2z" fill="#ffb189"/><path d="m279.1 181.8c-.9 3.8-4 6.4-7 5.7-2.9-.7-4.6-4.4-3.7-8.2s4-6.4 7-5.7c2.9.7 4.6 4.4 3.7 8.2z" fill="#ffb189"/><path d="m259.6 159.2s6 4.8 7.8 9.5c1.3 3.3 1.4 12.9 1.4 12.9h1.8s.1-7.8 2.8-8c0 0 1.3-8.2 1-12.2s-14.8-2.2-14.8-2.2z"/><path d="m274.4 166s4-17.3-4.7-20.5c-8.6-3.2-32.8-6.5-34.9.6s-2.7 19.9-2.7 19.9 13.1-22.8 42.3 0z" fill="#6fa6e8"/><path d="m272 165.1c-8.4-3.2-35.9-12.4-38.6 2.5 0 0-.1 0-.2-.1-.1 0-.1 0-.2-.1-.1 0-.1 0-.2-.1h-.1c-.1 0-.2-.1-.3-.1h-.1c-4-1.7-17.9-7.9-20.6-13.2-.6-1.1-.6-2.2.1-3.2 4.4-6.4 29.3-13.4 36.5-11.2 11.7 3.4 25.7 25.8 26.1 26.4-.1 0-1-.4-2.4-.9z" fill="#75ccd5"/><path d="m252.7 172.2s3.8-1.1 9.2 1.1c0 0 1.7-.8 1.9-1.3.3-.9-4.2-5.2-10.3-4.2-3.5.6-1.6 4.6-.8 4.4z"/><path d="m242.2 172.7s-3.7-.9-8.3 1.3c0 0-1.4-.8-1.6-1.3-.3-.9 3.5-5.1 8.7-4.2 3.2.5 1.6 4 1.2 4.2z"/><path d="m247.1 174.6s-.1 7-.7 8.9c0 0-3.5 1.3-2.4 4.5s5.6 1.3 5.7 1.1c1-.9 1.3-9-.3-14.6-.9-3-2.3.1-2.3.1z" fill="#ff9d6b"/><path d="m258.4 192c0 .8-.2 1.6-.4 2.3v.1c0 .1-.1.2-.1.3-.7 1.8-2.1 3.2-4.1 3.5-3.2.6-5.7-.6-7.4-1.8-1.6-1.2-2.5-2.5-2.5-2.5s.7 0 1.7-.1c.2 0 .4 0 .7-.1 3-.2 8.2-1.1 11.9-4-.1 0 .3.2.2 2.3z" fill="#5d4837"/><path d="m260.4 178c0 1.2-.8 2.1-1.7 2.1s-1.7-.9-1.7-2.1.8-2.1 1.7-2.1 1.7.9 1.7 2.1z" fill="#ad795e"/><path d="m242.8 178c0 1.2-.8 2.1-1.7 2.1s-1.7-.9-1.7-2.1.8-2.1 1.7-2.1c1 0 1.7.9 1.7 2.1z" fill="#ad795e"/><path d="m273.4 183s1.5-.8.8-2.4-.9-2.3-.9-2.3 1.5-3.4 3-1.7c1.6 1.8.7 6-.6 6.9-1.3.8-2.4 1.1-2.3-.5z" fill="#ff9d6b"/><path d="m232.8 255.3h30c.1 0-17.5 5.6-30 0z" fill="#ff9d00"/><path d="m207.7 354s3.3-1.5 1.7-8.3c-.7-2.9 9-3.5 10.5-2.6 2.7 1.7 1.4 8.8-.8 9.9-2.3 1-11.4 1-11.4 1z" fill="#ffb189"/><path d="m270.3 216.7c3.1-3 18 .3 14.5 2.1-7.1 3.6-6.2 38.2-6.2 38.2l-13.1 1.7s-1.5-35.8 4.8-42z" fill="#ffbd00"/><path d="m219.7 479.6s-24.8 5.7-23.4 8.2 6.3 5.2 13.6 3.4c3.2-.8 12.4-3.8 13.8-3.7l.5.5 6.9-.7s1.1-8 .4-8-11.8.3-11.8.3z" fill="#1d1d1d"/><path d="m285.8 479.6s24.8 5.7 23.4 8.2-6.3 5.2-13.6 3.4c-3.2-.8-12.4-3.8-13.8-3.7l-.5.5-6.9-.7s-1.1-8-.4-8c.8 0 11.8.3 11.8.3z" fill="#1d1d1d"/><g fill="#6b6966"><path d="m188.8 425.8c0 .9-.8 1.7-1.7 1.7-.9 0-1.7-.8-1.7-1.7 0-.9.8-1.7 1.7-1.7 1 0 1.7.8 1.7 1.7z"/><path d="m198 425.8c0 .9-.8 1.7-1.7 1.7-.9 0-1.7-.8-1.7-1.7 0-.9.8-1.7 1.7-1.7.9 0 1.7.8 1.7 1.7z"/><path d="m207.2 425.8c0 .9-.8 1.7-1.7 1.7-.9 0-1.7-.8-1.7-1.7 0-.9.8-1.7 1.7-1.7.9 0 1.7.8 1.7 1.7z"/></g><path d="m179.1 387.3h34.5v28.9h-34.5z" fill="#5c5a58"/><path d="m258.4 192c0 .8-.2 1.6-.4 2.3v.1c-1.6.4-3.3.6-5.1.6-2.7 0-5.3-.4-7.3-1.2.2 0 .4 0 .7-.1 3-.2 8.2-1.1 11.9-4-.1 0 .3.2.2 2.3z" fill="#fff"/><path d="m232.8 257.8s-.9 22.6 3 24.7 24.1 3.2 25.6.5c1.5-2.6 1.4-26.5 1.4-26.5s-1.2 25.6-4.4 26.2c-3.1.5-23.3.7-25.6-24.9z" fill="#ff9d00"/><path d="m201.8 325s17.5-.2 17.3-1.4c-.3-1.2 1-12.7 0-12.7s-21-1.2-21 .8c-.1 2 2.2 13.3 3.7 13.3z" fill="#6fa6e8"/><path d="m206.9 343.2s4.5 7.9 1.9 9.8c-1.3.9 6.8 2.2 6.1-2.8-.3-2.6-1.1-6.6-2.1-9.4-.9-2.7-3.3-4.8-4-5.2-1.6-.8-3.4 4.3-1.9 7.6z" fill="#ffb189"/><path d="m252.7 348.1s-7.4-6.2-7.6-5.4c-.2.7-16 136.6-16 136.6h2.3s16.6-123.2 20.6-130.9z" fill="#ff9d00"/><path d="m284.4 479.3s-10.4-140.3-9.1-146.3c1.4-6 3.1-83.3 3.1-83.3s10.6 18.1 12.2 26.4c.8 4.6-8.5 24.8-9.1 40.7s4.3 162.8 4.3 162.8z" fill="#ff9d00"/><path d="m276.7 343.1h52.6v5.2h-52.6z" fill="#6b6966" transform="matrix(.9853 -.1709 .1709 .9853 -54.6384 56.8877)"/><path d="m300.5 318.9-.1 14.8s-4.6 7.4-5.1 10.5 3.6 10.6 5.9 10.8 11.9-2 12.7-2.5 2.6-6.9 2.6-6.9-.6-6.5-2.4-8.3.1-18.2.1-18.2z" fill="#ffb189"/><path d="m278.5 249.7s13.9 21.4 16.8 43.9c2.8 21.3 2.9 25.6 2.9 25.6h17.6s2.3-15-1.8-42.2c-3.8-25.3-9.9-51-19.4-55.8-19.7-10.2-16.1 28.5-16.1 28.5z" fill="#6fa6e8"/><path d="m280.9 346.9c-.3-.6-.6-1.1-1-1.6-1.1-1.5-2.7-2.8-4.6-3.5-1.1-.4-2.2-.6-3.4-.6-.6 0-1.2.1-1.8.2-2 .4-3.9 1.4-5.3 2.8-1.8 1.8-2.9 4.3-2.9 7 0 1.3.3 2.6.8 3.8 0 .1.1.2.1.3.1.3.2.5.4.8s.4.7.6 1c1.8 2.5 4.7 4.1 8 4.1 1.6 0 3-.4 4.4-1 1.7-.8 3-2 4-3.6.8-1.3 1.4-2.8 1.5-4.4 0-.3 0-.6 0-.9.2-1.7-.2-3.1-.8-4.4zm-5 6.7c-.8 1.3-2.3 2.2-4 2.2-2.6 0-4.7-2.1-4.7-4.7 0-.7.2-1.4.5-2 .8-1.6 2.4-2.7 4.2-2.7.4 0 .8.1 1.2.2 1 .3 1.9.9 2.5 1.7s1 1.8 1 2.9c0 .9-.2 1.7-.7 2.4z" fill="#6b6966"/><path d="m334.5 331.3c-4.8 0-8.9 3.5-9.8 8-.1.6-.2 1.3-.2 1.9 0 1.2.2 2.3.6 3.3 1.4 3.8 5 6.6 9.4 6.6.8 0 1.5-.1 2.3-.3l-2.9-5c-2.3-.3-4.1-2.3-4.1-4.7 0-2.6 2.1-4.7 4.7-4.7s4.7 2.1 4.7 4.7c0 .5-.1 1-.2 1.5l2.9 5.2c1.6-1.8 2.5-4.1 2.5-6.6 0-5.4-4.4-9.9-9.9-9.9z" fill="#6b6966"/><path d="m264.8 336.2h6v14.1h-6z" fill="#ffbd00" transform="matrix(.869 -.4948 .4948 .869 -134.7552 177.4666)"/><path d="m298.2 321.6s-2.6-11.6-1.8-11.8 21.7-3.7 22.1-1.1-.7 13.7-2.9 14.1c-2.3.3-17.4-1.2-17.4-1.2z" fill="#6fa6cf"/><path d="m223.4 308.2s23.8 10 60.1 0c0 0 .3 12.7-1.5 13.1-1.9.4-24.4 8.8-58.6-1.1 0-.1-1.9-13.8 0-12z" fill="#723400"/><path d="m257.7 312.4c-.6-.4-1.3-.6-2.1-.6h-10.8c-.6 0-1.2.1-1.7.4-1.4.6-2.4 2-2.4 3.7v5.6c0 .9.3 1.8.9 2.5.7.9 1.9 1.5 3.2 1.5h10.8c.8 0 1.5-.2 2.1-.6.4-.3.8-.6 1.1-1 .6-.7.9-1.6.9-2.5v-5.6c-.1-1.4-.9-2.7-2-3.4zm-12.9 10.4c-.6 0-1.2-.4-1.3-1 0-.1 0-.2 0-.3v-5.6c0-.8.6-1.4 1.4-1.4h10.8c.7 0 1.3.6 1.3 1.4v5.6c0 .8-.6 1.3-1.3 1.3z" fill="#aba8a3"/><path d="m258.6 318.9c0 .5-.4 1-1 1h-2.8c-.5 0-1-.4-1-1 0-.5.4-1 1-1h2.8c.5 0 1 .5 1 1z" fill="#aba8a3"/><path d="m272 165.1c-8.4-3.2-35.9-12.4-38.6 2.5 0 0-.1 0-.2-.1 0 0-.1 0-.2-.1-.1 0-.1 0-.2-.1h-.1c-.1 0-.2-.1-.3-.1h-.1c-4.1-1.7-18.9-8.1-20.6-13.2-1.9-5.9 26-14.1 34.5-13 8.5 1 25.3 23.4 25.8 24.1z" fill="#6fa6e8"/><g fill="#dcdcdc" opacity=".24"><path d="m353.4 492.4v-.2c-.2.3-.4.5-.6.6-.2.2-.4.3-.7.4-.2.1-.5.1-.8.1-.4 0-.8-.1-1.1-.2-.3-.2-.6-.4-.9-.7-.2-.3-.4-.7-.6-1.1-.1-.4-.2-.9-.2-1.3 0-1 .2-1.8.7-2.4s1.2-.9 2-.9c.5 0 .9.1 1.2.2.3.2.6.4.9.7v-2.4c0-.3.1-.6.2-.8s.3-.3.6-.3c.2 0 .4.1.6.2.1.2.2.4.2.7v7.2c0 .3-.1.5-.2.7s-.3.2-.6.2c-.2 0-.4-.1-.6-.2 0 0-.1-.2-.1-.5zm-3.2-2.4c0 .4.1.8.2 1.1s.3.5.6.7c.2.2.5.2.8.2s.5-.1.8-.2c.2-.1.4-.4.6-.7.1-.3.2-.7.2-1.2 0-.4-.1-.8-.2-1.1s-.3-.6-.6-.7c-.2-.2-.5-.2-.8-.2s-.6.1-.8.3-.4.4-.5.7c-.2.3-.3.7-.3 1.1z"/><path d="m360.6 490.4h-3.2c0 .4.1.7.2 1s.3.5.6.6c.2.1.5.2.8.2.2 0 .4 0 .5-.1.2 0 .3-.1.5-.2s.3-.2.4-.3l.5-.5c.1-.1.2-.1.4-.1s.3 0 .4.1.2.2.2.4c0 .1-.1.3-.2.5s-.3.4-.5.6-.5.3-.9.5c-.4.1-.8.2-1.2.2-1 0-1.9-.3-2.4-.9-.6-.6-.9-1.4-.9-2.4 0-.5.1-.9.2-1.3s.4-.8.6-1.1c.3-.3.6-.5 1-.7s.8-.2 1.3-.2c.6 0 1.2.1 1.6.4.5.3.8.6 1 1s.3.9.3 1.3-.1.7-.4.8c0 .2-.3.2-.8.2zm-3.2-.9h3c0-.6-.2-1-.5-1.3s-.6-.4-1-.4-.7.1-1 .4c-.2.3-.4.8-.5 1.3z"/><path d="m368.1 491.2c0 .5-.1.8-.3 1.2-.2.3-.5.6-1 .7-.4.2-1 .2-1.6.2s-1.1-.1-1.5-.3-.7-.4-.9-.7-.3-.5-.3-.8c0-.2.1-.3.2-.5.1-.1.3-.2.5-.2s.3 0 .4.1.2.2.3.4c.2.3.4.5.6.7.2.1.6.2 1 .2.3 0 .6-.1.8-.2s.3-.3.3-.5c0-.3-.1-.5-.3-.6s-.6-.3-1.1-.4c-.6-.1-1-.3-1.4-.4-.4-.2-.6-.4-.8-.6-.2-.3-.3-.6-.3-.9s.1-.6.3-.9.5-.5.9-.7.8-.3 1.4-.3c.4 0 .8 0 1.1.1s.6.2.8.4c.2.1.4.3.5.5s.2.4.2.5c0 .2-.1.3-.2.5-.1.1-.3.2-.5.2s-.3 0-.4-.1-.3-.2-.4-.4-.3-.3-.4-.4c-.2-.1-.4-.1-.7-.1s-.5.1-.7.2-.3.3-.3.5.1.3.2.4.3.2.6.3c.2.1.6.2 1 .3.5.1.9.3 1.2.4.3.2.6.4.7.6 0 .1.1.3.1.6z"/><path d="m369.7 486c-.2 0-.4-.1-.6-.2s-.2-.3-.2-.6c0-.2.1-.4.2-.6.2-.1.4-.2.6-.2s.4.1.6.2.2.3.2.6-.1.4-.2.6c-.1.1-.3.2-.6.2zm.9 1.6v4.7c0 .3-.1.6-.2.7-.2.2-.4.3-.6.3s-.4-.1-.6-.3c-.1-.2-.2-.4-.2-.7v-4.7c0-.3.1-.6.2-.7.1-.2.3-.2.6-.2.2 0 .4.1.6.2.1.2.2.5.2.7z"/><path d="m377.7 487.9v4.7c0 .5-.1 1-.2 1.4s-.3.7-.6 1-.6.4-1 .6c-.4.1-.9.2-1.5.2s-1.1-.1-1.5-.2c-.4-.2-.8-.4-1-.6s-.4-.5-.4-.8c0-.2.1-.4.2-.5s.3-.2.5-.2.4.1.6.3l.3.3.3.3c.1.1.2.1.4.2.2 0 .3.1.5.1.4 0 .8-.1 1-.2s.4-.3.5-.5.1-.4.2-.7c0-.2 0-.6 0-1.2-.3.4-.5.6-.9.8-.3.2-.7.3-1.2.3s-1-.1-1.4-.4-.7-.7-.9-1.2-.3-1.1-.3-1.7c0-.5.1-.9.2-1.3s.3-.7.6-1c.2-.3.5-.5.9-.6.3-.1.7-.2 1.1-.2.5 0 .9.1 1.2.3s.7.5.9.8v-.2c0-.3.1-.5.2-.7s.3-.2.5-.2c.3 0 .5.1.6.3.1.1.2.4.2.8zm-4.7 2.1c0 .7.1 1.2.4 1.5s.7.5 1.1.5c.3 0 .5-.1.8-.2.2-.1.4-.4.6-.7s.2-.6.2-1.1c0-.7-.1-1.2-.4-1.6s-.7-.6-1.2-.6-.8.2-1.1.5c-.3.5-.4 1-.4 1.7z"/><path d="m380.3 487.6v.2c.3-.4.6-.7.9-.8.3-.2.7-.3 1.2-.3.4 0 .8.1 1.2.3.3.2.6.5.8.8.1.2.2.4.2.6v.9 3c0 .3-.1.6-.2.7-.1.2-.3.3-.6.3-.2 0-.4-.1-.6-.3s-.2-.4-.2-.7v-2.7c0-.5-.1-.9-.2-1.2s-.4-.4-.9-.4c-.3 0-.6.1-.8.3s-.4.4-.5.7c-.1.2-.1.7-.1 1.4v2c0 .3-.1.6-.2.7-.2.2-.4.2-.6.2s-.4-.1-.6-.3-.2-.4-.2-.7v-4.7c0-.3.1-.5.2-.7s.3-.2.6-.2c.1 0 .3 0 .4.1l.3.3c-.1.2-.1.3-.1.5z"/><path d="m390.2 490.4h-3.2c0 .4.1.7.2 1s.3.5.6.6c.2.1.5.2.8.2.2 0 .4 0 .5-.1.2 0 .3-.1.5-.2s.3-.2.4-.3.3-.3.5-.5c.1-.1.2-.1.4-.1s.3 0 .4.1.2.2.2.4c0 .1-.1.3-.2.5s-.3.4-.5.6-.5.3-.9.5c-.4.1-.8.2-1.2.2-1 0-1.9-.3-2.4-.9-.6-.6-.9-1.4-.9-2.4 0-.5.1-.9.2-1.3s.4-.8.6-1.1c.3-.3.6-.5 1-.7s.8-.2 1.3-.2c.6 0 1.2.1 1.6.4.5.3.8.6 1 1s.3.9.3 1.3-.1.7-.4.8c0 .2-.3.2-.8.2zm-3.2-.9h3c0-.6-.2-1-.5-1.3s-.6-.4-1-.4-.7.1-1 .4-.4.8-.5 1.3z"/><path d="m396.9 492.4v-.2c-.2.3-.4.5-.6.6-.2.2-.4.3-.7.4-.2.1-.5.1-.8.1-.4 0-.8-.1-1.1-.2-.3-.2-.6-.4-.9-.7-.2-.3-.4-.7-.6-1.1-.1-.4-.2-.9-.2-1.3 0-1 .2-1.8.7-2.4s1.2-.9 2-.9c.5 0 .9.1 1.2.2.3.2.6.4.9.7v-2.4c0-.3.1-.6.2-.8s.3-.3.6-.3c.2 0 .4.1.6.2.1.2.2.4.2.7v7.2c0 .3-.1.5-.2.7s-.3.2-.6.2c-.2 0-.4-.1-.6-.2-.1 0-.1-.2-.1-.5zm-3.2-2.4c0 .4.1.8.2 1.1s.3.5.6.7c.2.2.5.2.8.2s.5-.1.8-.2c.2-.1.4-.4.6-.7.1-.3.2-.7.2-1.2 0-.4-.1-.8-.2-1.1s-.3-.6-.6-.7c-.2-.2-.5-.2-.8-.2s-.6.1-.8.3-.4.4-.5.7c-.3.3-.3.7-.3 1.1z"/><path d="m403.5 485.2v2.5c.3-.3.6-.6.9-.7.3-.2.7-.3 1.2-.3s1 .1 1.4.4.7.6 1 1.1c.2.5.3 1.1.3 1.7 0 .5-.1.9-.2 1.4-.1.4-.3.8-.5 1.1s-.5.5-.9.7c-.3.2-.7.2-1.1.2-.3 0-.5 0-.7-.1s-.4-.1-.6-.2-.3-.2-.4-.3-.3-.3-.4-.5v.2c0 .3-.1.5-.2.7s-.3.2-.6.2c-.2 0-.4-.1-.6-.2-.1-.2-.2-.4-.2-.7v-7.1c0-.3.1-.6.2-.8s.3-.3.6-.3.4.1.6.2c.2.3.2.5.2.8zm.1 4.9c0 .6.1 1.1.4 1.5.3.3.7.5 1.2.5.4 0 .8-.2 1.1-.5.3-.4.4-.9.4-1.5 0-.4-.1-.8-.2-1.1s-.3-.5-.5-.7-.5-.3-.8-.3-.6.1-.8.3-.4.4-.6.7c-.1.2-.2.6-.2 1.1z"/><path d="m410.5 493.6.1-.4-2-5.1c-.1-.3-.2-.5-.2-.6s0-.3.1-.4.2-.2.3-.3.3-.1.4-.1c.2 0 .4.1.5.2s.2.4.3.6l1.4 4 1.3-3.7c.1-.3.2-.5.3-.7s.2-.3.3-.3c.1-.1.2-.1.4-.1.1 0 .2 0 .4.1l.3.3c.1.1.1.2.1.4 0 .1 0 .2-.1.3 0 .1-.1.3-.1.4l-2.1 5.6c-.2.5-.4.9-.5 1.2-.2.3-.4.5-.7.6s-.7.2-1.2.2-.8-.1-1.1-.2c-.2-.1-.4-.3-.4-.6 0-.2.1-.3.2-.4s.3-.2.5-.2h.3.3c.2 0 .3 0 .4-.1s.2-.2.3-.3c0 0 .1-.2.2-.4z"/><path d="m434.1 486.9h.4v-.5c0-.5.1-.9.2-1.2s.3-.5.7-.7c.3-.1.7-.2 1.3-.2 1 0 1.4.2 1.4.7 0 .2-.1.3-.2.4s-.2.2-.4.2c-.1 0-.2 0-.3 0s-.3 0-.4 0c-.3 0-.5.1-.6.3s-.1.4-.1.7v.4h.4c.6 0 .9.2.9.6 0 .3-.1.4-.2.5-.2.1-.4.1-.7.1h-.4v4.3c0 .3-.1.6-.2.7-.2.2-.3.3-.6.3-.2 0-.4-.1-.6-.3s-.2-.4-.2-.7v-4.5h-.4c-.2 0-.4-.1-.6-.2-.1-.1-.2-.3-.2-.4 0-.3.3-.5.8-.5"/><path d="m439.5 491v1.4c0 .3-.1.6-.2.7-.2.2-.4.2-.6.2s-.4-.1-.6-.3c-.1-.2-.2-.4-.2-.7v-4.5c0-.7.3-1.1.8-1.1.3 0 .5.1.6.3s.2.4.2.8c.2-.3.4-.6.6-.8s.5-.3.8-.3.7.1 1 .3.5.4.5.7c0 .2-.1.4-.2.5s-.3.2-.4.2-.2 0-.4-.1-.4-.1-.6-.1-.4.1-.6.2-.3.3-.4.6c-.1.2-.1.5-.2.9-.1.2-.1.6-.1 1.1"/><path d="m447 490.4h-3.2c0 .4.1.7.2 1s.3.5.6.6c.2.1.5.2.8.2.2 0 .4 0 .5-.1.2 0 .3-.1.5-.2s.3-.2.4-.3l.5-.5c.1-.1.2-.1.4-.1s.3 0 .4.1.2.2.2.4c0 .1-.1.3-.2.5s-.3.4-.5.6-.5.3-.9.5c-.4.1-.8.2-1.2.2-1.1 0-1.9-.3-2.4-.9-.6-.6-.9-1.4-.9-2.4 0-.5.1-.9.2-1.3s.3-.8.6-1.1.6-.5 1-.7.8-.2 1.3-.2c.6 0 1.2.1 1.6.4.5.3.8.6 1 1s.3.9.3 1.3-.1.7-.4.8c-.1.2-.4.2-.8.2m-3.2-.9h3c0-.6-.2-1-.4-1.3-.3-.3-.6-.4-1-.4s-.7.1-1 .4c-.4.3-.5.8-.6 1.3"/><path d="m453.8 490.4h-3.2c0 .4.1.7.2 1s.3.5.6.6c.2.1.5.2.8.2.2 0 .4 0 .5-.1.2 0 .3-.1.5-.2s.3-.2.4-.3.3-.3.5-.5c.1-.1.2-.1.4-.1s.3 0 .4.1.2.2.2.4c0 .1-.1.3-.2.5s-.3.4-.5.6-.5.3-.9.5c-.3.1-.8.2-1.2.2-1.1 0-1.9-.3-2.4-.9-.6-.6-.9-1.4-.9-2.4 0-.5.1-.9.2-1.3s.4-.8.6-1.1c.3-.3.6-.5 1-.7s.9-.2 1.3-.2c.6 0 1.2.1 1.6.4.5.3.8.6 1 1s.3.9.3 1.3-.1.7-.4.8c-.1.2-.4.2-.8.2m-3.2-.9h3c0-.6-.2-1-.4-1.3-.3-.3-.6-.4-1-.4s-.7.1-1 .4c-.4.3-.6.8-.6 1.3"/><path d="m457.4 487.6v.2c.3-.4.6-.7 1-.8.3-.2.7-.3 1.1-.3.5 0 1 .1 1.4.4s.8.6 1 1.1.4 1.1.4 1.8c0 .5-.1 1-.2 1.4s-.3.8-.6 1.1c-.2.3-.5.5-.9.7-.3.2-.7.2-1.1.2-.5 0-.9-.1-1.2-.3s-.6-.5-.9-.8v2.4c0 .7-.3 1.1-.8 1.1-.3 0-.5-.1-.6-.3s-.1-.5-.1-.8v-7c0-.3.1-.5.2-.7.1-.1.3-.2.6-.2.2 0 .4.1.6.2 0 .1.1.3.1.6m3.2 2.4c0-.4-.1-.8-.2-1.1s-.3-.5-.5-.7-.5-.3-.8-.3c-.4 0-.8.2-1.1.5-.3.4-.5.9-.5 1.6 0 .6.2 1.2.5 1.5.3.4.7.5 1.1.5.3 0 .5-.1.8-.2.2-.2.4-.4.6-.7 0-.3.1-.7.1-1.1"/><path d="m463.8 486c-.2 0-.4-.1-.6-.2s-.2-.3-.2-.6c0-.2.1-.4.3-.6.2-.1.4-.2.6-.2s.4.1.6.2.2.3.2.6-.1.4-.2.6c-.2.1-.4.2-.7.2m.9 1.6v4.7c0 .3-.1.6-.2.7-.2.2-.4.3-.6.3s-.4-.1-.6-.3c-.1-.2-.2-.4-.2-.7v-4.7c0-.3.1-.6.2-.7.2-.2.3-.2.6-.2.2 0 .4.1.6.2.1.2.2.5.2.7"/><path d="m469.9 492.6-1.4-2.4-.9.8v1.3c0 .3-.1.6-.3.7-.2.2-.4.3-.6.3-.3 0-.4-.1-.6-.3-.1-.2-.2-.4-.2-.7v-7c0-.4.1-.6.2-.8s.3-.3.6-.3.4.1.6.3c.1.2.2.4.2.8v4l1.8-1.9c.2-.2.4-.4.5-.5s.3-.1.4-.1c.2 0 .4.1.5.2s.2.3.2.5-.2.6-.7 1l-.9.8 1.7 2.6c.1.2.2.3.3.4s.1.2.1.3c0 .3-.1.5-.2.6s-.3.2-.6.2c-.2 0-.4 0-.5-.2.1-.1 0-.3-.2-.6"/><path d="m473.5 493.4c-.2 0-.5-.1-.6-.2-.2-.2-.3-.4-.3-.7 0-.2.1-.5.3-.6.2-.2.4-.3.6-.3.3 0 .5.1.6.3.2.2.3.4.3.6 0 .3-.1.5-.3.7-.2.1-.4.2-.6.2"/><path d="m481.6 491.3c0 .2-.1.4-.2.7-.1.2-.3.5-.6.7s-.6.4-.9.5c-.4.1-.8.2-1.3.2-1 0-1.8-.3-2.4-.9s-.8-1.4-.8-2.4c0-.7.1-1.3.4-1.8s.6-.9 1.1-1.2 1.1-.4 1.8-.4c.4 0 .8.1 1.2.2s.7.3.9.5l.6.6c.1.2.2.4.2.6s-.1.4-.2.5-.3.2-.5.2c-.1 0-.3 0-.3-.1-.1-.1-.2-.2-.3-.3-.2-.3-.4-.5-.6-.7s-.5-.2-.8-.2c-.5 0-.9.2-1.2.6s-.4.9-.4 1.5c0 .3 0 .6.1.8.1.3.2.5.3.7s.3.3.5.4.4.1.7.1.6-.1.8-.2c.2-.2.4-.4.6-.7.1-.2.2-.3.3-.4s.3-.2.4-.2c.2 0 .4.1.5.2 0 .2.1.4.1.5"/><path d="m488.6 490c0 .5-.1.9-.2 1.3-.2.4-.4.8-.7 1.1s-.6.5-1 .7-.8.2-1.3.2-.9-.1-1.3-.2c-.4-.2-.7-.4-1-.7s-.5-.7-.7-1.1c-.1-.4-.2-.9-.2-1.3 0-.5.1-.9.2-1.4.2-.4.4-.8.7-1.1s.6-.5 1-.7.8-.2 1.3-.2.9.1 1.3.2c.4.2.7.4 1 .7s.5.6.7 1.1c.1.5.2.9.2 1.4m-1.6 0c0-.7-.1-1.2-.4-1.6s-.7-.6-1.2-.6c-.3 0-.6.1-.8.2-.2.2-.4.4-.6.7-.1.3-.2.7-.2 1.1s.1.8.2 1.1.3.6.6.7c.2.2.5.3.8.3.5 0 .9-.2 1.2-.6.2-.1.4-.6.4-1.3"/><path d="m494.8 490.2v2.2c0 .3-.1.6-.2.8-.2.2-.4.3-.6.3s-.4-.1-.6-.3-.2-.4-.2-.8v-2.6c0-.4 0-.7 0-1 0-.2-.1-.4-.2-.6-.1-.1-.3-.2-.6-.2-.5 0-.9.2-1.1.6s-.3.9-.3 1.6v2.2c0 .3-.1.6-.2.8-.2.2-.4.3-.6.3s-.5-.1-.6-.3c-.2-.2-.2-.4-.2-.8v-4.7c0-.3.1-.5.2-.7s.3-.2.6-.2c.2 0 .4.1.6.2s.2.4.2.6v.2c.3-.3.6-.6.9-.7.3-.2.7-.2 1.1-.2s.8.1 1.1.2c.3.2.5.4.7.7.3-.3.6-.6.9-.7.3-.2.7-.2 1-.2.4 0 .8.1 1.2.3.3.2.6.4.7.8.1.3.2.8.2 1.4v3.2c0 .3-.1.6-.2.8-.2.2-.4.3-.6.3s-.4-.1-.6-.3-.2-.4-.2-.8v-2.7c0-.4 0-.6 0-.8s-.1-.4-.2-.5-.3-.2-.6-.2c-.2 0-.4.1-.6.2s-.3.3-.5.5c-.4-.1-.5.4-.5 1.1"/><path d="m419 490.2c0-.1-.1-.3-.1-.4 0 .1 0 .2.1.4z"/><path d="m419.4 491.6c0-.1 0-.1 0 0z"/><path d="m419.1 490.7c.1.3.2.5.3.7-.1-.2-.2-.4-.3-.7z"/><path d="m425.2 483.4c.3 0 .5 0 .8.1l.1-.5s-.7-.2-1.7-.1l-.1-.3c.3-.1.5-.3.5-.7s-.3-.7-.7-.7-.7.3-.7.7c0 .3.2.6.5.7l.1.3c-1 .1-1.8.5-1.8.5l.1.4c.6-.2 1.2-.3 1.7-.4z"/><path d="m419.5 485.8-.1-.2-.3-.2s-.5.5-.9 1.3c0 0 0-.1-.1-.1-.1-.1-.3-.2-.5-.2-.1 0-.2 0-.3-.1.1-.1.1-.2.1-.3 0-.2-.2-.4-.4-.4s-.4.2-.4.4.2.4.4.4h.1c.1.1.3.2.5.2.1 0 .2 0 .3.1s.1.2.1.3c-.3.7-.2 1.7-.2 1.7h.7c0-.3.1-.9.2-1.4.3-.9.8-1.5.8-1.5z"/><path d="m431 483.9c-.2 0-.4.2-.4.4v.1c-.1.1-.2.3-.2.5 0 .1 0 .2-.1.3-.1 0-.1.1-.2.1-.5-.7-1.1-1.1-1.1-1.1l-.5.5c.4.3.7.7 1.1 1.3.2.4.5.8.7 1.3l.6-.3s-.3-.7-.7-1.4c.1 0 .1-.1.2-.1.1-.1.2-.3.2-.5 0-.1 0-.2.1-.3.1.1.2.1.3.1.2 0 .4-.2.4-.4 0-.3-.2-.5-.4-.5z"/><path d="m429.3 489.7c-.9.4-2.3 1-4.3 1.3-.8.1-1.5.1-2.2.1-.9 0-1.7-.1-2.2-.1-.7-.1-1.2-.2-1.5-.3.1.2.2.5.3.7v.1.1c.2.4.4.7.7 1 .9 1 1.8 1.1 1.8 1.1s.8.3 2.1.3c1.2 0 2.4-.2 3.6-.7.8-.4 1.7-1.1 2-1.7.3-.5.5-.9.7-1.4.1-.3.1-.7.1-1.2-.2.2-.6.5-1.1.7z"/><path d="m419.8 486s-.4.6-.7 1.4c-.2.6-.2 1.5-.2 1.5v.6.1c0 .1 0 .3.1.4.4.1 3.1.7 6 .3 1.8-.3 3.2-.8 4.1-1.2.7-.3 1.2-.7 1.3-.8-.2-.6-.7-1.7-1.1-2.3-1.3-1.8-2.6-2.3-3.3-2.4-.3 0-.5-.1-.8-.1s-.6 0-1.1.1c-.5 0-1 .2-1.6.4-.8.3-1.6.7-2.2 1.3-.1.3-.3.4-.5.7zm7.7-.4c.6 0 1.1.5 1.1 1.1s-.5 1.1-1.1 1.1-1.1-.5-1.1-1.1.5-1.1 1.1-1.1zm-5.2 0c1 0 1.8.8 1.8 1.8s-.8 1.8-1.8 1.8-1.8-.8-1.8-1.8.8-1.8 1.8-1.8z"/></g></svg>