<svg xmlns="http://www.w3.org/2000/svg" viewBox="0 0 126.74 132.7"><defs><style>.cls-1{fill:#75cbd5;}</style></defs><title>top</title><g id="Layer_2" data-name="Layer 2"><g id="Layer_1-2" data-name="Layer 1"><g id="top"><path id="Path_172" data-name="Path 172" class="cls-1" d="M75.42.2a2.41,2.41,0,0,0-1.61,1,9.64,9.64,0,0,0-.26,1.94c-.83,11.5-2.62,19.42-5.51,24.3-1.46,2.46-2.89,4-6.06,6.53-3.53,2.81-5.48,4.89-6.53,6.95-.15.31-.75,1.71-1.33,3.11a116.93,116.93,0,0,1-8.67,17.83c-2.75,4.41-5.68,7.67-8.12,9a6.4,6.4,0,0,1-3.79.78h-1.7V98.89c0,15,0,27.23.05,27.23l1.37.25c.73.14,2.6.5,4.15.78s4.08.76,5.6,1c18.09,3.36,16.47,3.09,19.89,3.37,5,.4,10.66.75,16.24,1,3.83.17,14.5.17,17.12,0,5.34-.35,8.56-.93,10.47-1.88,3.36-1.69,7.7-5.76,9.06-8.49l.43-.88.07-3.49a21.45,21.45,0,0,1,.2-3.84c.3-.79,1-1.6,3.16-3.8,2.45-2.45,3.17-3.31,3.73-4.45.83-1.69.71-2.66-.88-6.59-1-2.61-1.45-3.94-1.45-4.81,0-1.07.66-2.16,2.8-4.58,2.37-2.7,3-3.82,2.86-5a12.28,12.28,0,0,0-1.85-3.9c-2.1-3.45-2.66-4.75-2.53-5.77.1-.76.59-1.6,1.89-3.33,2.32-3.06,2.62-3.67,2.49-5-.2-2.2-2-5.76-4.24-8.6a21.21,21.21,0,0,0-3.34-3.22c-1.75-1.18-4.37-1.65-11.51-2-2.51-.14-13.84-.19-21.27-.1l-4.25,0-.25-.72c-.5-1.43-.3-3.76.55-6.45s1.86-5,4.67-10.6c1.11-2.23,2.22-4.5,2.44-5.06a30.62,30.62,0,0,0,1.94-7.24,47.24,47.24,0,0,0,.06-7.89c-.76-4.71-2-7.68-4.29-10.15C84.15,1.4,78.76-.67,75.42.2Z"/><path id="Path_173" data-name="Path 173" class="cls-1" d="M4,69.19A5.7,5.7,0,0,0,.64,71.84C0,73.15,0,71.16,0,99.57,0,122.2,0,125.43.16,126A5.33,5.33,0,0,0,4,129.92c.67.18,17.76.21,18.52,0a5.52,5.52,0,0,0,3.94-4.12c.15-.77.15-51.74,0-52.51a5.53,5.53,0,0,0-3.94-4.13C21.91,69.06,4.58,69.06,4,69.19Z"/></g></g></g></svg>